<?xml version="1.0" encoding="UTF-8"?>
<svg width="142px" height="130px" viewBox="0 0 142 130" version="1.1" xmlns="http://www.w3.org/2000/svg" xmlns:xlink="http://www.w3.org/1999/xlink">
    <!-- Generator: Sketch 54.1 (76490) - https://sketchapp.com -->
    <title>logoueb</title>
    <desc>Created with Sketch.</desc>
    <g id="Page-1" stroke="none" stroke-width="1" fill="none" fill-rule="evenodd">
        <g id="Desktop-HD" transform="translate(-129.000000, -8.000000)">
            <g id="header" transform="translate(129.000000, 8.000000)">
                <g id="logoueb">
                    <rect id="Rectangle" fill="#FFFFFF" x="0" y="0" width="142" height="130"></rect>
                    <g id="Group-36" transform="translate(18.637500, 17.808219)" fill="#0D6BFF">
                        <path d="M37.7933824,3.18240404 C37.7947522,3.64794804 38.1961049,4.02380636 38.6899193,4.02380636 C39.1837338,4.02243711 39.5844016,3.64520954 39.5830318,3.17966554 C39.5823469,2.71412154 39.1809942,2.33963247 38.6871797,2.34031709 C38.1933652,2.34100171 37.7933824,2.71754466 37.7933824,3.18240404 L37.7933824,3.18240404 Z M31.8943198,11.2753388 C31.9758231,10.1751488 32.2401954,9.06468944 32.6230557,8.01105382 C32.4730621,8.27531851 32.1764995,8.45674374 31.8340484,8.45742837 C31.3402339,8.45811299 30.9388812,8.08293929 30.9381963,7.61807991 C30.9375114,7.15390516 31.3374943,6.77530834 31.8313088,6.77462372 C32.3264931,6.7739391 32.7271609,7.15048204 32.7278458,7.61534142 C32.7278458,7.66874205 32.7237363,7.72214269 32.7127779,7.77348946 C33.2141263,6.46791238 33.8942342,5.25818259 34.6229701,4.27369395 C34.4681822,4.39213382 34.2709304,4.46401929 34.0551862,4.46470391 C33.5613717,4.46538854 33.160019,4.08884559 33.1593341,3.62398622 C33.1579643,3.15981146 33.5579472,2.78121464 34.0517617,2.78053002 C34.5476309,2.7798454 34.9482987,3.15638834 34.9496685,3.62124772 C34.9496685,3.72873362 34.9277516,3.82937328 34.8907669,3.92453595 C35.4106076,3.27072047 35.947571,2.73671412 36.4557684,2.36564816 C39.2700315,0.122136838 41.7397888,-0.476908754 43.6219,1.07376355 C45.3629214,2.41014869 39.2049658,8.25683367 37.4570954,11.5621961 C36.1763283,13.9542707 36.605762,14.0268408 39.8734303,17.0063224 C42.0986775,19.0862087 42.2020978,19.1341324 43.1226063,20.0789129 C43.971885,20.9477001 44.1568086,21.473491 43.3725956,22.5243881 C41.8569071,24.1181917 40.7494202,25.5593242 37.9899493,28.2163482 C37.5077781,28.7236542 37.642019,29.0591198 38.2447329,29.6068186 C39.6576861,30.9165034 42.4993453,33.3352783 44.0807845,35.2043006 C44.6369251,35.8156694 44.6800739,36.5269933 44.1424257,37.193132 C43.194521,38.4713241 41.5623991,40.2321758 40.1330082,41.8307718 C39.441257,42.6564278 39.4535853,42.8748227 40.2282097,43.4334755 C42.9322035,45.4154606 44.4513166,46.5758975 45.6492105,47.5302627 C47.368315,48.6989151 46.808065,49.2356599 45.8998847,50.7384086 C44.1047561,53.1208985 42.5048245,55.1453303 40.5425798,56.4611767 C39.56043,57.0629608 37.922144,57.2423322 37.6687302,55.6498978 C37.5968154,54.8488883 38.2207613,53.9314927 39.1522283,52.9675428 C39.0077139,53.0606516 38.8337488,53.1161061 38.6440309,53.1161061 C38.1502164,53.1174754 37.7488637,52.7429863 37.7481788,52.276073 C37.746809,51.8132675 38.1474768,51.4346707 38.6412913,51.4346707 C39.1351058,51.4339861 39.5364584,51.810529 39.5378282,52.2733345 C39.5378282,52.4328518 39.4912549,52.577992 39.4118062,52.705332 C40.1795816,51.9474537 41.1144731,51.164929 42.0336118,50.3892506 C42.4534569,50.0428311 42.2911351,49.8360748 41.612397,49.2671526 C40.926125,48.7619004 40.2686189,48.249802 39.6083732,47.7233265 C39.7398744,47.8684667 39.8172683,48.0560536 39.8172683,48.2621253 C39.8186381,48.7256154 39.4186553,49.102843 38.9241559,49.1042122 C38.4303414,49.1042122 38.0289887,48.7283539 38.0289887,48.2648638 C38.0276189,47.800689 38.4276018,47.4220922 38.9214163,47.4220922 C39.0899022,47.4220922 39.2474297,47.4652235 39.3816705,47.5398474 C38.3995208,46.7511611 37.4070975,45.9241359 36.311254,45.0320714 C36.3941272,45.1594114 36.4420703,45.309344 36.4420703,45.4688612 C36.4427552,45.9337206 36.0420875,46.3095789 35.5489579,46.3109482 C35.0551434,46.3123174 34.6537907,45.9364591 34.6531058,45.4715997 C34.6524209,45.007425 35.0524038,44.6301974 35.5462183,44.6288282 C35.6688158,44.6288282 35.7866189,44.6514207 35.8955184,44.694552 L35.240067,44.1701304 C34.3606526,43.3280434 34.3592828,42.7420057 35.3188307,41.6548235 L35.800317,41.1112324 C35.6633365,41.1927026 35.5023845,41.2378878 35.3304741,41.2378878 C34.8359747,41.239257 34.434622,40.8627141 34.4332522,40.3985393 C34.4332522,39.9329953 34.8332351,39.557137 35.3277345,39.5557678 C35.8208641,39.5550832 36.2229016,39.9295722 36.2229016,40.3951162 C36.2235865,40.504656 36.2016697,40.6080341 36.1626302,40.7031968 C36.8742436,39.8960257 37.6098286,39.0532541 38.2481574,38.3124914 C38.0926846,38.4350391 37.8933781,38.5076091 37.6755792,38.5082938 C37.1810798,38.5089784 36.780412,38.1331201 36.7797271,37.6675761 C36.7790422,37.2034013 37.1790251,36.8261737 37.6728396,36.8254891 C38.167339,36.8241199 38.5680067,37.1999782 38.5693765,37.664153 C38.5693765,37.8065546 38.5323918,37.9407409 38.4666412,38.0571269 L39.1844187,37.212986 C39.6830275,36.5495858 39.9864392,36.4516847 39.3885196,35.8266234 C38.7995037,35.2604397 38.0344679,34.5539082 37.2331324,33.8151994 C37.3132659,33.9411702 37.3598393,34.0897335 37.3598393,34.2471969 C37.3612091,34.7127409 36.9605413,35.0892838 36.4667268,35.0906531 C35.9722274,35.0906531 35.5715597,34.7154794 35.5715597,34.25062 C35.5701898,33.785076 35.9694878,33.4085331 36.4639872,33.4071638 C36.626309,33.4071638 36.7790422,33.4475566 36.9105434,33.5187575 C36.0475667,32.7239095 35.1633579,31.9098921 34.4236636,31.2033607 C34.4866746,31.3183774 34.5209197,31.4470866 34.5216046,31.5840113 C34.5216046,32.05024 34.1216217,32.4274675 33.6278072,32.4281522 C33.1326229,32.4288368 32.7319552,32.0536631 32.7312703,31.5874345 C32.7305854,31.1225751 33.1298833,30.7453475 33.6250676,30.7439783 C33.7791706,30.7439783 33.9250548,30.7809479 34.0503919,30.8453026 C33.6490392,30.4557518 33.3079579,30.1113861 33.0593384,29.8402752 C32.2299219,28.8667405 32.277865,28.1752708 33.104542,27.2886833 C33.3730236,27.0168878 33.6962975,26.6773145 34.0586107,26.2952945 C33.9161511,26.3849802 33.7469802,26.436327 33.5641113,26.4370116 C33.0702968,26.4370116 32.6689442,26.0625225 32.6675744,25.5969785 C32.6668895,25.1307499 33.0668723,24.7555762 33.5606868,24.7548916 C34.0545013,24.7535223 34.455854,25.1280114 34.455854,25.5935554 C34.4565389,25.732534 34.4216089,25.8632971 34.3592828,25.9783138 C35.0400756,25.2601438 35.8325074,24.4283262 36.6468561,23.6348475 C36.5201492,23.701256 36.3715254,23.7389103 36.2146828,23.7395949 C35.7208683,23.7395949 35.3202005,23.3644212 35.3195156,22.9002464 C35.3188307,22.4347024 35.7181287,22.0574749 36.2119432,22.0567902 C36.7071275,22.0561056 37.1084802,22.4319639 37.1084802,22.8968233 C37.1091651,23.0364865 37.0721804,23.1713574 37.0071146,23.2877434 C37.2783359,23.028271 37.5536666,22.775645 37.8255728,22.5339728 C38.4549979,22.0266668 38.5577332,21.6603932 38.1872011,21.2605731 C37.3413469,20.4718868 36.5763112,19.8043788 35.8736015,19.1827406 C35.9633237,19.314873 36.0167461,19.4709672 36.0167461,19.6393845 C36.0181159,20.1042439 35.6167632,20.4814715 35.1236336,20.4828407 C34.6298191,20.4835254 34.2284665,20.1069824 34.2277816,19.642123 C34.2270967,19.1772637 34.6270795,18.7993515 35.120894,18.7986668 C35.2811611,18.7979822 35.4318396,18.8390596 35.5626559,18.907522 C34.6805019,18.1243127 33.8935493,17.4006656 33.1579643,16.5784327 C33.2243998,16.6955034 33.2620695,16.8290049 33.2627544,16.970722 C33.2627544,17.4348968 32.8634564,17.812809 32.368957,17.8134936 C31.8737727,17.8148628 31.4737898,17.4376353 31.4731049,16.9741451 C31.47242,16.5072319 31.871718,16.1300043 32.3662174,16.1300043 C32.5805918,16.1293197 32.7764738,16.1998359 32.9298919,16.3169065 L32.7723644,16.1300043 C32.4141605,15.6952684 31.8114466,14.6498482 31.8114466,12.6363704 C31.7539148,13.0478292 31.3792733,13.3668637 30.9258681,13.3675484 C30.4313687,13.3689176 30.0307009,12.99169 30.030016,12.526146 C30.0293311,12.0626559 30.4286291,11.6847437 30.9231285,11.6840591 C31.3847526,11.6826898 31.7635035,12.0092553 31.8141862,12.4302987 C31.8210353,12.0729252 31.8456917,11.6895361 31.8943198,11.2753388 L31.8943198,11.2753388 Z M52.7030182,55.0186749 C55.7891874,44.7308371 57.0987204,33.3743019 57.0802281,22.6811669 C57.0720092,17.6074219 56.534361,12.500815 55.4296138,7.52839423 L60.1492748,7.52017875 C61.0245798,12.7561795 61.3889478,18.065435 61.3985364,23.3651058 C61.4183986,35.6903833 59.76299,47.6055713 55.0282611,59.1332624 L54.3029497,59.1627012 L52.6982239,59.164755 L51.0804849,59.1674935 L50.3572282,59.139424 C45.5841448,47.6295331 43.8896968,35.7191375 43.8698346,23.3945446 C43.8609309,18.0941892 44.2074914,12.7828799 45.0663587,7.54482519 L49.5969867,7.53797896 C48.5073073,12.5138228 48.1751298,17.6224836 48.1833486,22.6962286 C48.2011561,33.388679 49.5490436,44.7411064 52.6680882,55.0186749 L52.7030182,55.0186749 Z M72.4836784,7.54961756 C72.4836784,7.0854428 72.885031,6.70684599 73.3774757,6.70616137 C73.87266,6.70547674 74.2726429,7.08201969 74.2740127,7.54687907 C74.2740127,8.01242307 73.8753996,8.38828139 73.3802153,8.38896601 C73.039134,8.38896601 72.7405167,8.21027927 72.5905231,7.94532996 C72.9774928,8.99759633 73.2466594,10.1073711 73.3295326,11.2075611 C73.3733663,11.5772578 73.4000775,11.9223081 73.4110359,12.2454504 C73.5096618,11.8819153 73.8603318,11.6128582 74.2767523,11.6128582 C74.7712517,11.6121736 75.1726044,11.9887166 75.1732893,12.4528913 C75.1739742,12.9170661 74.7739913,13.2949783 74.278807,13.2963475 C73.8699204,13.2970321 73.5233599,13.0375598 73.417885,12.6822402 C73.4014473,14.6217787 72.8185955,15.63776 72.4692954,16.0649651 L72.3754638,16.177928 C72.506965,16.1060425 72.6603831,16.0629112 72.8233899,16.0629112 C73.3172043,16.0622266 73.718557,16.4380849 73.718557,16.9043135 C73.7199268,17.3684883 73.3199439,17.7464005 72.8261295,17.7470851 C72.332315,17.7477697 71.9302774,17.3712268 71.9302774,16.907052 C71.9295925,16.8098355 71.9460301,16.7180959 71.9768507,16.6318334 C71.2946882,17.3883424 70.5659522,18.0661197 69.7536582,18.7931899 C69.88105,18.7281506 70.0269342,18.6891271 70.1803523,18.6891271 C70.6734819,18.6884425 71.0741497,19.0649854 71.0755195,19.5318987 C71.0755195,19.9960734 70.6762215,20.3726164 70.1830919,20.373301 C69.6879076,20.3739856 69.2872398,19.9981273 69.2865549,19.5346371 C69.2865549,19.3710121 69.3344981,19.2190257 69.4187411,19.0910011 C68.7064428,19.7242779 67.9304486,20.4054783 67.0702114,21.2126494 C66.702419,21.6152081 66.8051543,21.9801124 67.4366341,22.48468 C67.7167591,22.7331983 68.0003086,22.9933552 68.2824883,23.2583045 C68.2167377,23.1432878 68.1804379,23.0111555 68.179753,22.8721769 C68.1790681,22.4059482 68.579051,22.0280361 69.0728655,22.0273514 C69.5680497,22.0266668 69.9687175,22.4025251 69.9694024,22.8694384 C69.9694024,23.3336131 69.5701044,23.7101561 69.0756051,23.7108407 C68.9201323,23.7115253 68.7721934,23.6745557 68.6441167,23.6088318 C69.4433975,24.383141 70.2166521,25.1889429 70.8864865,25.8886282 C70.8255302,25.7756653 70.7892303,25.6455868 70.7892303,25.5086621 C70.7885454,25.0431181 71.1878434,24.6672598 71.6823428,24.6665752 C72.1775271,24.6652059 72.5788798,25.039695 72.5788798,25.505239 C72.5802496,25.9700984 72.1802667,26.3480106 71.6850824,26.3486952 C71.5035833,26.3486952 71.3337276,26.2987177 71.1926377,26.2110859 C71.5665943,26.6006366 71.8967172,26.9477408 72.1734177,27.2243287 C73.0014644,28.1081777 73.0521472,28.7996474 72.2254702,29.7759206 C71.989179,30.0367622 71.66659,30.3640122 71.2892089,30.7343935 C71.4042725,30.6851006 71.5302945,30.6570311 71.6659051,30.6570311 C72.1583498,30.6556618 72.5590176,31.0315202 72.5603874,31.4950103 C72.5603874,31.9619235 72.1617743,32.3391511 71.6686448,32.3398357 C71.1714058,32.3405204 70.7714229,31.964662 70.7700531,31.4984334 C70.7700531,31.3813628 70.7974492,31.2690845 70.8419678,31.1677602 C70.1098074,31.8694994 69.2379269,32.6787244 68.3872784,33.4674107 C68.5187796,33.3955252 68.670143,33.3544478 68.8331497,33.3544478 C69.3269642,33.3537632 69.7283168,33.7289369 69.7290017,34.1944809 C69.7296867,34.6593403 69.3297038,35.0358832 68.8358893,35.0372525 C68.3427597,35.0379371 67.9400372,34.6620788 67.9400372,34.197904 C67.9393523,34.039756 67.9872955,33.890508 68.0667441,33.7645373 C67.2667784,34.5059846 66.5044822,35.2152546 65.9175211,35.7828075 C65.3202863,36.4099226 65.6257527,36.5071392 66.1257313,37.1691701 L66.8455635,38.0092032 C66.7955657,37.9065097 66.7681696,37.7908083 66.7681696,37.6709992 C66.7674847,37.2054552 67.1674676,36.8289122 67.6619669,36.8282276 C68.1564663,36.8268584 68.5564492,37.2020321 68.5571341,37.6675761 C68.557819,38.1324354 68.1592059,38.5103476 67.6647065,38.5117169 C67.4695094,38.5117169 67.2886952,38.4528393 67.1421262,38.3535689 C67.7886738,39.0998085 68.5311078,39.9418954 69.2427212,40.742905 C69.1817649,40.6292575 69.1482047,40.5032867 69.1475198,40.3670467 C69.1475198,39.9035565 69.5468178,39.5249597 70.0420021,39.5235905 C70.5351316,39.5229058 70.9364843,39.900818 70.9371692,40.3649928 C70.9378541,40.8284829 70.5378712,41.2070797 70.0447417,41.208449 C69.8420106,41.208449 69.657087,41.1454636 69.5064085,41.0400316 L70.0063871,41.5979998 C70.9693596,42.6817588 70.9693596,43.2677966 70.0933697,44.112622 L69.4618899,44.6219819 C69.5557215,44.5898046 69.657087,44.572689 69.7632469,44.572689 C70.2563764,44.5720044 70.6577291,44.9478627 70.658414,45.4127221 C70.6590989,45.8775815 70.259116,46.2534398 69.7659865,46.2548091 C69.2714871,46.2561783 68.8708193,45.88032 68.8694495,45.4154606 C68.8694495,45.2730589 68.9057493,45.1381881 68.9735546,45.0211174 C67.9667484,45.8433503 67.0482946,46.6142364 66.1428539,47.3488375 C66.2366855,47.3180294 66.3407906,47.2988599 66.4483203,47.2988599 C66.9407649,47.2988599 67.3428025,47.673349 67.3434874,48.1402623 C67.3441723,48.604437 66.9435045,48.98098 66.4510599,48.9823492 C65.9558756,48.9823492 65.5545229,48.6071755 65.5531531,48.14437 C65.5531531,47.9958067 65.5935623,47.8581974 65.6627374,47.7390729 C65.0305727,48.2470635 64.3963533,48.7420464 63.7388472,49.2315522 C63.0601091,49.801159 62.899842,50.0092845 63.3203719,50.3543348 C64.2408805,51.1272747 65.1785116,51.907061 65.9490266,52.6608315 C65.8702628,52.5355454 65.8216347,52.3883513 65.8209498,52.2308879 C65.8209498,51.7667131 66.2209327,51.3894856 66.716117,51.3881163 C67.2092466,51.3881163 67.6105993,51.7639746 67.6112842,52.2281494 C67.6119691,52.6930088 67.2126711,53.0688671 66.7181717,53.0702363 C66.5284538,53.0702363 66.3538037,53.0168357 66.2086045,52.9230423 C67.1441809,53.8835691 67.7701815,54.7995954 67.7016913,55.5999203 C67.4544416,57.1944085 65.8147857,57.0205141 64.8319511,56.4214685 C62.8642271,55.1124683 61.2588163,53.0928289 59.454784,50.7171853 C58.5411245,49.2164905 57.9795047,48.6817995 59.6944997,47.5076701 C60.8896541,46.5491972 62.4046577,45.3832833 65.1031723,43.3923981 C65.8743722,42.8303221 65.8853307,42.6139811 65.1935794,41.790379 C63.7566546,40.1958908 62.1190535,38.440516 61.1684093,37.1650624 C60.6266516,36.5009776 60.6691156,35.7896537 61.2225165,35.176231 C62.7977916,33.3017318 65.6319168,30.8733721 67.0393908,29.5588949 C67.640735,29.0098269 67.7749758,28.6736767 67.2907499,28.1684245 C64.5230602,25.5203007 63.4087243,24.0825913 61.8889264,22.4942647 C61.1012888,21.4454214 61.2848426,20.9196306 62.1313817,20.0467355 C63.0477809,19.0999012 63.1512011,19.0519776 65.3702842,16.9645604 C68.6269941,13.9748094 69.0564278,13.9008701 67.7688117,11.5129032 C66.0099828,8.21301776 59.83285,2.38687149 61.5697619,1.04432474 C63.4463939,-0.511824554 65.918206,0.0790055558 68.740003,2.31224752 C69.2598437,2.68810584 69.8091353,3.23717392 70.3419892,3.90605111 C70.3002102,3.80746532 70.2769235,3.70066405 70.2769235,3.58838579 C70.2755537,3.12421104 70.6755366,2.74698347 71.1693511,2.74629884 C71.6638504,2.74561422 72.0652031,3.12147254 72.065888,3.5856473 C72.0665729,4.05187592 71.66659,4.42841887 71.1727756,4.42841887 C70.9494975,4.42910349 70.7453966,4.3537949 70.588554,4.22782417 C71.3172899,5.20683583 71.9967129,6.40903475 72.5014858,7.70845022 C72.4891576,7.65641883 72.4836784,7.6030182 72.4836784,7.54961756 L72.4836784,7.54961756 Z M65.3901464,3.13721888 C65.3908313,3.60207826 65.792184,3.97862121 66.2859984,3.97793658 C66.7798129,3.97725196 67.1797958,3.59933977 67.1791109,3.13448039 C67.178426,2.66962101 66.7770733,2.29444731 66.2832588,2.29444731 C65.7894443,2.29581656 65.3894615,2.6723595 65.3901464,3.13721888 L65.3901464,3.13721888 Z" id="Fill-2"></path>
                        <path d="M50.7556358,86.6824449 C50.5138653,87.2493132 50.1645652,87.7573039 49.7145844,88.1947783 C49.2584396,88.6438913 48.7358592,88.9903108 48.1591716,89.2217136 C47.5797443,89.4531163 46.9496343,89.5708716 46.2852792,89.5722408 C45.6401013,89.5736101 45.0127309,89.4531163 44.4202905,89.2176059 C43.8305897,88.9834646 43.3086942,88.6438913 42.8737813,88.2084708 C42.4196912,87.7696271 42.0697062,87.2630057 41.8306753,86.6995605 C41.5909595,86.1367999 41.469047,85.5363851 41.4676771,84.9133777 C41.4669922,84.2862625 41.5868501,83.6776322 41.8245112,83.1066562 C42.0621723,82.5384187 42.4087328,82.0372742 42.8539192,81.6148615 C43.324447,81.1664331 43.8614103,80.8165905 44.4483715,80.575603 C45.0325931,80.3359847 45.6455805,80.2134371 46.2688415,80.2120679 C46.9188137,80.2106986 47.5454992,80.3298231 48.128351,80.5660183 C48.7077782,80.8001595 49.2303586,81.146579 49.6803393,81.5943228 C50.1536067,82.0584976 50.5145502,82.5747037 50.754266,83.1299334 C50.9939817,83.68174 51.1152094,84.2780471 51.1158943,84.8976314 C51.1165792,85.5206388 50.9967213,86.1210536 50.7556358,86.6824449 L50.7556358,86.6824449 Z M51.7946324,79.6582074 C51.0713757,78.9694762 50.2234668,78.4347852 49.2735074,78.0671424 C48.3262877,77.702238 47.3146872,77.5187589 46.2647321,77.5201281 C45.2346392,77.5214974 44.2367367,77.707715 43.3025301,78.0753578 C42.3662688,78.4388929 41.5163052,78.9763224 40.7738712,79.6746384 C40.0437655,80.3592619 39.4718722,81.1602715 39.0773685,82.0571283 C38.6801252,82.956039 38.4794489,83.8932886 38.4808187,84.8476538 C38.4821885,85.8643198 38.681495,86.8323775 39.0705195,87.727865 C39.458859,88.6254065 40.0382863,89.4366854 40.7903089,90.1473246 C41.5149354,90.8292096 42.3607896,91.3611621 43.3086942,91.728805 C44.2552291,92.0978171 45.2579259,92.2867732 46.2893886,92.2840347 C47.3455078,92.2826654 48.3543687,92.0978171 49.2858357,91.7370205 C50.2193574,91.3721161 51.0741153,90.834002 51.8281926,90.1308936 C52.5521342,89.4517471 53.1192332,88.6548453 53.5109973,87.7600423 C53.9055009,86.8672933 54.1041226,85.9204589 54.1027528,84.9469242 C54.101383,83.9172504 53.904816,82.9478235 53.5185312,82.0639745 C53.1329313,81.1814948 52.5528191,80.3722698 51.7946324,79.6582074 L51.7946324,79.6582074 Z M97.9782721,89.3915002 L97.9727929,86.0553297 L104.722504,86.0443758 L104.718395,83.4222676 L97.9686834,83.4345909 L97.9632042,80.2189141 L104.912222,80.2065909 L104.908112,77.6043368 L94.9318271,77.6207678 L94.9557987,92.0177161 L105.153992,92.0006005 L105.149198,89.379177 L97.9782721,89.3915002 Z M90.6087245,86.4414574 C90.6094094,87.3136678 90.3087373,87.9928143 89.6868461,88.5213437 C89.0526267,89.0601424 88.18965,89.3339919 87.1198327,89.3353611 C86.4815039,89.3367303 85.9075558,89.2299291 85.4130565,89.0224881 C84.9274608,88.819155 84.5007667,88.5035435 84.1446176,88.0852385 C83.9692826,87.8736899 83.8384663,87.6142175 83.7603875,87.3177755 C83.7028557,87.093219 83.6323108,86.6091902 83.6302561,85.5767779 L83.6172429,77.5790058 L80.80161,77.5844828 L80.8153081,85.6596173 C80.8173628,86.7865077 80.8954416,87.6094252 81.0543389,88.1708165 C81.2180305,88.7472695 81.4974706,89.2751142 81.88718,89.7433967 C82.4974278,90.495798 83.2604089,91.077728 84.1528364,91.4693327 C85.0356754,91.8575142 86.0356326,92.0526319 87.124627,92.0512627 C88.9724932,92.0485242 90.4957156,91.5350565 91.6559399,90.5197598 C92.8332868,89.4921399 93.4291517,88.1372699 93.4264121,86.4941734 L93.4113443,77.5632594 L90.5936566,77.5680518 L90.6087245,86.4414574 Z M76.4771376,86.6263058 C76.2367369,87.2068665 75.8888066,87.727865 75.4422504,88.1776627 C74.9744622,88.6548453 74.4470875,89.0183804 73.8724545,89.2607371 C73.2978216,89.5024092 72.6807247,89.6256415 72.0355469,89.6270107 C71.411601,89.6270107 70.7999833,89.50104 70.2123372,89.2525217 C69.6226364,89.0012648 69.0966316,88.6438913 68.6487055,88.1906705 C68.1980399,87.7429268 67.8507945,87.2212436 67.6097089,86.6420521 C67.3727327,86.0649145 67.2494503,85.4466994 67.2480805,84.8052072 C67.2467107,84.1568687 67.3686233,83.5297535 67.6042297,82.945085 C67.8418907,82.3617858 68.1870814,81.844895 68.631583,81.4101591 C69.0980014,80.9528305 69.6308553,80.5954571 70.2150768,80.348308 C70.7945041,80.1025281 71.4026972,79.9779266 72.0197941,79.9765574 C72.664972,79.9751881 73.2854934,80.0984204 73.8628659,80.3359847 C74.4395536,80.5783415 74.9587094,80.9316072 75.4066354,81.3909896 C75.8785331,81.8674876 76.2374218,82.3967016 76.4764527,82.9676776 C76.7161684,83.5372844 76.8367112,84.1500225 76.838081,84.7887762 C76.8394508,85.4295838 76.718908,86.0484835 76.4771376,86.6263058 L76.4771376,86.6263058 Z M78.1948723,89.6763036 C79.2694838,88.3830498 79.8119263,86.85497 79.8091867,85.1297187 C79.8078169,84.0788216 79.61125,83.0895406 79.2290746,82.1872068 C78.8475841,81.2841883 78.2708964,80.4551092 77.517504,79.7239313 C76.7976718,79.0208229 75.9566119,78.4724395 75.0114469,78.0965812 C74.0703913,77.7220921 73.0622152,77.5324514 72.0156847,77.5338206 C70.9897012,77.5351899 69.9972779,77.7275691 69.0664959,78.1020582 C68.1350289,78.4779165 67.2884898,79.0283538 66.5542746,79.7396776 C65.8282783,80.4421014 65.2618642,81.2615958 64.8687303,82.1789913 C64.4749116,83.0963868 64.275605,84.0534905 64.2776597,85.0270252 C64.2803993,86.8056771 64.8228419,88.3857883 65.8878648,89.7214888 C66.9337104,91.035966 68.3315958,91.9170764 70.0417966,92.3518124 C71.2958525,93.2425076 72.5033351,93.9312389 73.6265747,94.3981521 C74.7922782,94.882181 75.8634652,95.1279608 76.8154793,95.1265916 C76.943556,95.1252223 77.0428668,95.1238531 77.1106721,95.1211146 C77.1942302,95.1142683 77.2784731,95.103999 77.3640859,95.0861988 L77.4777797,95.0636062 L77.5640774,94.987613 L79.4249566,93.3616321 L79.6571384,93.1610374 L79.5475541,92.8748648 L79.4681054,92.6674238 L79.3359193,92.3196351 L78.9715514,92.3922052 C78.7160828,92.4428673 78.477052,92.4818909 78.2654172,92.5072219 C78.056522,92.532553 77.8640645,92.5421377 77.692839,92.543507 C77.1517662,92.543507 76.5757635,92.4681984 75.984008,92.3148427 C75.6655285,92.2326879 75.318968,92.1190404 74.9463812,91.9828003 C76.2655028,91.4522171 77.3579218,90.6820156 78.1948723,89.6763036 L78.1948723,89.6763036 Z M60.2333123,83.5626155 C60.2278331,83.559877 59.9257912,83.3914596 59.9257912,83.3914596 C57.8724544,82.2043224 57.6491763,81.564884 57.6484914,81.3444352 C57.6484914,81.024716 57.7834172,80.7775669 58.0731308,80.5660183 C58.3970895,80.3298231 58.8340571,80.2106986 59.3730751,80.2093294 C59.8401784,80.2079601 60.3175553,80.3031228 60.7880831,80.490025 C61.2764183,80.6837735 61.8222854,81.0062312 62.4099315,81.4450749 L63.0900393,81.950327 L63.085245,78.7236963 L62.8695008,78.6018333 C62.3024018,78.2800603 61.7298236,78.0390728 61.1709434,77.8836632 C60.606584,77.7275691 60.0271567,77.6488374 59.4456748,77.6502066 C58.1238135,77.6515759 57.0204361,78.0178495 56.1677329,78.7360195 C55.2958524,79.4713052 54.8540905,80.4270397 54.8568301,81.5730995 C54.8581999,82.3912246 55.0938062,83.1093947 55.5595397,83.7098095 C56.0047262,84.2807855 57.02797,85.0420869 58.687488,86.0313679 C59.9148328,86.7522765 60.3696078,87.1342964 60.5339844,87.3294141 C60.7421946,87.5772479 60.8435601,87.8524665 60.8435601,88.1776627 C60.8442451,88.5624211 60.7072646,88.8458553 60.4100171,89.0690425 C60.0833187,89.3168763 59.6114211,89.4407931 59.0093921,89.4421624 C58.4210611,89.4435316 57.8594413,89.31003 57.3402854,89.0437115 C56.804007,88.7671236 56.2252647,88.3029488 55.6198111,87.6614566 L54.8849111,86.8816704 L54.8910752,90.6334073 L55.0561366,90.7607473 C55.6588506,91.2249221 56.2985492,91.5686031 56.9553704,91.7780979 C57.6101369,91.992385 58.3470917,92.0978171 59.1484272,92.0964478 C60.4648092,92.0950786 61.5654471,91.728805 62.4215748,91.0133734 C63.2989345,90.2780877 63.743436,89.3326226 63.7406964,88.2071015 C63.7393266,87.2410977 63.5009807,86.4147571 63.0331925,85.749303 C62.5736231,85.0954876 61.6579089,84.380056 60.2333123,83.5626155 L60.2333123,83.5626155 Z M34.2042894,88.8903558 C33.8097857,89.1895363 33.142691,89.3422073 32.2194429,89.3449458 L29.8489964,89.3476843 L29.8421473,85.6712559 L31.8742522,85.6692021 C32.9159884,85.6664636 33.67486,85.8266655 34.1268955,86.1463847 C34.5371519,86.4339266 34.7378282,86.8926243 34.739198,87.5437013 C34.7398829,88.173555 34.5652329,88.6144525 34.2042894,88.8903558 L34.2042894,88.8903558 Z M29.8311889,79.3467037 L31.4085187,79.3439652 C32.204375,79.342596 32.7742136,79.475413 33.1050214,79.7369392 C33.4111727,79.9792959 33.5597964,80.3818545 33.5597964,80.9658384 C33.5611662,81.6162308 33.3639144,82.0749285 32.9591372,82.3768475 C32.5180602,82.7020437 31.7989129,82.8690918 30.8229273,82.8704611 L29.8380379,82.8718303 L29.8311889,79.3467037 Z M35.1994523,83.8036029 C35.544643,83.5680924 35.8336717,83.2956123 36.05558,82.9813701 C36.4678912,82.4035478 36.6747316,81.6799007 36.6733618,80.8323368 C36.6713071,79.4767822 36.2131075,78.4067156 35.3083517,77.6591067 C34.4303071,76.9320365 33.1885795,76.5630244 31.616044,76.5657629 L26.8429607,76.5732938 L26.868302,92.1525869 L32.4454606,92.1436868 C34.0762127,92.1409483 35.397389,91.7411282 36.3699501,90.950388 C37.3705922,90.1404784 37.876735,89.0423422 37.8746803,87.6895261 C37.8726255,86.6317828 37.5377084,85.7157565 36.8781476,84.9722553 C36.44118,84.4772725 35.8761357,84.0884063 35.1994523,83.8036029 L35.1994523,83.8036029 Z M14.8263517,77.6810147 L11.8141519,77.685807 L11.8374385,92.1649102 L22.0417963,92.14711 L22.0376869,89.5585484 L14.845529,89.5708716 L14.8263517,77.6810147 Z M3.33300803,85.7061717 L10.0423099,85.6945331 L10.0375156,82.9409773 L3.32821371,82.9519313 L3.32204959,79.3651886 L10.2299731,79.3549192 L10.2251788,76.6219021 L0.320808187,76.6376484 L0.346149568,92.1820258 L10.4703738,92.1649102 L10.4655794,89.4099851 L3.33917214,89.4223083 L3.33300803,85.7061717 Z" id="Fill-4"></path>
                        <path d="M8.09177694,68.5760009 C8.09383165,69.6577061 8.39450371,70.5175933 8.99584784,71.1542931 C9.59650706,71.7903084 10.3985275,72.1072891 11.4039639,72.1059199 C12.4087155,72.1045506 13.2093661,71.7848314 13.8086555,71.1460777 C14.4072601,70.5080085 14.7058774,69.6467521 14.7031378,68.5650469 L14.6942341,62.6526381 L15.5270751,62.6512688 L15.5373487,68.5198618 C15.5394034,69.8767856 15.1675015,70.9523292 14.4209581,71.7506002 C13.6744147,72.547502 12.6682934,72.9473222 11.4019092,72.9500607 C10.1403194,72.9514299 9.13625278,72.5564021 8.392449,71.7649773 C7.64796032,70.970814 7.27674333,69.8959551 7.27400373,68.5335543 L7.26441509,62.6642767 L8.08150341,62.6629074 L8.09177694,68.5760009 Z" id="Fill-6"></path>
                        <polygon id="Fill-8" points="18.7378281 72.0245181 18.7234452 63.1381046 19.4590301 63.1367354 25.9053296 70.8811968 25.8930013 63.1257814 26.5998204 63.1244122 26.6142033 72.0108256 25.9614915 72.0121949 19.4330038 64.1650399 19.4453321 72.0231489"></polygon>
                        <polygon id="Fill-10" points="29.8193401 63.2488083 30.5788966 63.247439 30.5939645 72.1345371 29.8337231 72.1352217"></polygon>
                        <polygon id="Fill-12" points="33.1348146 63.2434682 33.9087541 63.242099 36.9305426 70.6955954 39.9543858 63.2325142 40.7029839 63.231145 36.9969781 72.2811835 36.8839692 72.2811835"></polygon>
                        <polygon id="Fill-14" points="42.8431662 72.1141353 42.8287833 63.2277219 47.5943327 63.2195064 47.5950176 63.7918517 43.5390268 63.7986979 43.5438212 67.3245091 47.4689956 67.3190321 47.4703654 67.8913774 43.545191 67.8982236 43.5506702 71.5150897 47.7080265 71.5082435 47.7087114 72.1059199"></polygon>
                        <path d="M50.834605,63.2140294 L52.9742394,63.2112909 C53.9077611,63.2085524 54.6241688,63.3995624 55.1234625,63.7822669 C55.6220713,64.1663407 55.8720606,64.7140396 55.8727455,65.4294711 C55.8734304,65.9764854 55.7357651,66.4283369 55.4576948,66.7898181 C55.1803094,67.1492455 54.7590945,67.4217256 54.1988446,67.6052047 C54.3584268,67.6976289 54.503626,67.8044302 54.6330725,67.9276624 C54.763204,68.0515793 54.8796373,68.1912425 54.9857972,68.3473367 L57.4110358,72.0901735 L56.6138097,72.0915428 L55.2090753,69.9075937 C54.9303201,69.4810732 54.692659,69.1284921 54.4912978,68.8525888 C54.2899365,68.5760009 54.1303543,68.3781447 54.0118663,68.2617587 C53.8563935,68.1056645 53.6522926,67.9927017 53.3954543,67.9262932 C53.1406707,67.8633078 52.7660292,67.8297613 52.2728996,67.8311305 L51.5516976,67.8324998 L51.5585466,72.0997582 L50.8489879,72.1004429 L50.834605,63.2140294 Z M51.5448486,63.8117057 L51.5503278,67.2204463 L52.0893458,67.2190771 C52.7598651,67.2177078 53.2235438,67.2012769 53.481752,67.1663611 C53.7426997,67.1321299 53.9604986,67.0759907 54.1358336,66.9938359 C54.4584225,66.850065 54.6995081,66.648101 54.8597752,66.3913672 C55.0200423,66.1318949 55.1008607,65.8121757 55.0994909,65.4322096 C55.0994909,64.9146343 54.9186768,64.5134449 54.5549937,64.23138 C54.1919955,63.9479458 53.6783189,63.807598 53.0139638,63.8089672 L51.5448486,63.8117057 Z" id="Fill-18"></path>
                        <path d="M63.8550751,64.4562103 C63.4907071,64.207692 63.1427768,64.0255821 62.8147087,63.9050884 C62.4859556,63.7873331 62.1592573,63.7298248 61.8373532,63.7298248 C61.3031295,63.731194 60.8689015,63.889342 60.5305598,64.2049535 C60.1915333,64.5219342 60.0216775,64.9203851 60.0230473,65.3961984 C60.0230473,65.7864339 60.1326317,66.1034146 60.3511155,66.3485098 C60.5689144,66.5929204 61.0387573,66.8708775 61.7592744,67.1789581 C61.7996836,67.1947045 61.8640644,67.2214048 61.9483074,67.2549513 C62.763341,67.5890476 63.3057835,67.9101361 63.5790595,68.2189013 C63.7701472,68.4263422 63.9132918,68.6639066 64.0119177,68.9288559 C64.1112285,69.1965437 64.1605415,69.4799778 64.1619113,69.7805276 C64.1625962,70.4897975 63.9201408,71.0710429 63.4338602,71.5270022 C62.9462099,71.9843307 62.3243187,72.2116257 61.5640773,72.212995 C61.1846414,72.2143642 60.8058905,72.1486404 60.4298792,72.0178773 C60.0552377,71.8871142 59.6764868,71.6899426 59.2943114,71.4256779 L59.2929416,70.5630523 C59.7073074,70.8868792 60.102496,71.1299205 60.473713,71.2880686 C60.8435601,71.445532 61.2031338,71.5242637 61.5510641,71.5242637 C62.1256971,71.5228945 62.5797872,71.3626925 62.9140195,71.0457118 C63.2489366,70.7259927 63.414683,70.2953645 63.4139981,69.7483503 C63.4133132,69.3485301 63.2989345,69.0171723 63.071547,68.7618077 C62.8421047,68.5064432 62.3215791,68.2072627 61.5092851,67.8649509 C60.6675403,67.5157929 60.0915375,67.1611579 59.7812768,66.8044691 C59.4717011,66.4457263 59.3169132,65.9883978 59.3155434,65.435222 C59.3141736,64.7437522 59.549095,64.1796224 60.0189379,63.7407787 C60.4894657,63.3012504 61.103823,63.080117 61.8626946,63.0787478 C62.2051457,63.0787478 62.5407478,63.1259868 62.8674461,63.2204649 C63.1934596,63.3156275 63.5228975,63.4628216 63.8543902,63.662047 L63.8550751,64.4562103 Z" id="Fill-20"></path>
                        <polygon id="Fill-22" points="66.9779551 63.1872606 67.7368267 63.1858914 67.7518946 72.0729895 66.9923381 72.0736741"></polygon>
                        <path d="M74.0811442,63.1765805 C74.7523484,63.1752112 75.3235568,63.2395659 75.7947695,63.3675905 C76.2666671,63.4949304 76.6913065,63.6982636 77.0700574,63.9789593 C77.6220886,64.3917873 78.0542618,64.9175781 78.3624678,65.5556473 C78.6720436,66.1902933 78.8275164,66.8762861 78.8288862,67.6095179 C78.830256,68.3379573 78.6768379,69.0198423 78.3693169,69.6579115 C78.0624807,70.2966652 77.633047,70.8224561 77.0823856,71.2380226 C76.7029498,71.522826 76.2769407,71.7302669 75.7988789,71.8630839 C75.322187,71.9965855 74.7544031,72.0623093 74.0955272,72.0623093 L71.0483973,72.0671017 L71.0340144,63.1806882 L74.0811442,63.1765805 Z M73.9071791,63.8146496 L71.7819276,63.8180727 L71.7935709,71.4399865 L73.9195073,71.437248 C74.4968799,71.4358788 74.9961736,71.3879552 75.4119092,71.2893694 C75.8296995,71.1928374 76.1879034,71.0387972 76.4906301,70.8306716 C76.9796503,70.4999984 77.3631955,70.0508854 77.6405809,69.4812786 C77.9193361,68.9157796 78.0590562,68.2927722 78.0583713,67.6197872 C78.0570015,66.9461177 77.9152267,66.3244795 77.6351017,65.756242 C77.3549767,65.1866352 76.9707466,64.7368375 76.4796717,64.406849 C76.1769449,64.199408 75.8180562,64.0494755 75.4002659,63.9536282 C74.9838453,63.861204 74.4845516,63.8132804 73.9071791,63.8146496 L73.9071791,63.8146496 Z" id="Fill-26"></path>
                        <path d="M80.1676645,72.0525877 L83.8154536,63.4893165 L84.0853051,63.4893165 L87.7604902,72.0402645 L87.0516165,72.0402645 L85.8044096,69.089537 L82.1141566,69.095014 L80.8827024,72.0512184 L80.1676645,72.0525877 Z M82.3477082,68.5212995 L85.570173,68.5158225 L83.9538039,64.6661844 L82.3477082,68.5212995 Z" id="Fill-30"></path>
                        <path d="M93.3653873,63.1444716 C94.0359066,63.1431024 94.607115,63.207457 95.0790126,63.3354816 C95.5502253,63.4628216 95.9755496,63.667524 96.3522458,63.9468504 C96.9063317,64.3596784 97.3385049,64.8868385 97.6467109,65.5235384 C97.9556018,66.1595537 98.1117595,66.8441772 98.1131293,67.577409 C98.1144991,68.3058485 97.9603961,68.9877335 97.6535599,69.6271719 C97.3467238,70.2645564 96.9172901,70.7903473 96.364574,71.2059138 C95.9878778,71.4907171 95.5604988,71.6995273 95.0824371,71.8316597 C94.6064301,71.9644766 94.0379613,72.0302005 93.3797703,72.0308851 L90.3312706,72.0349929 L90.3168877,63.1499486 L93.3653873,63.1444716 Z M93.1914222,63.7825408 L91.0648009,63.7859639 L91.0771291,71.4092469 L93.2037504,71.4051392 C93.7824928,71.40377 94.2783619,71.3572156 94.6961523,71.2586298 C95.1139426,71.1607286 95.4714616,71.0066883 95.7735034,70.799932 C96.2638934,70.4678896 96.6474386,70.0187765 96.9241391,69.450539 C97.2035792,68.8836707 97.3412445,68.2620326 97.3405596,67.5876784 C97.3398747,66.9153781 97.1994698,66.2937399 96.917975,65.7241331 C96.6392198,65.1545263 96.2549897,64.7047287 95.762545,64.3761094 C95.4605031,64.1686684 95.1016144,64.0173666 94.6845089,63.9228886 C94.2653488,63.8290952 93.7694796,63.7825408 93.1914222,63.7825408 L93.1914222,63.7825408 Z" id="Fill-34"></path>
                    </g>
                </g>
            </g>
        </g>
    </g>
</svg>