<?xml version="1.0" encoding="UTF-8"?>
<svg width="209px" height="166px" viewBox="0 0 209 166" version="1.1" xmlns="http://www.w3.org/2000/svg" xmlns:xlink="http://www.w3.org/1999/xlink">
    <!-- Generator: Sketch 54.1 (76490) - https://sketchapp.com -->
    <title>Group 2</title>
    <desc>Created with Sketch.</desc>
    <g id="Page-1" stroke="none" stroke-width="1" fill="none" fill-rule="evenodd">
        <g id="Desktop-HD" transform="translate(-157.000000, -4026.000000)">
            <g id="Group-2" transform="translate(157.000000, 4026.000000)">
                <g id="Group-36" transform="translate(47.025000, 0.000000)" fill="#333333">
                    <path d="M42.5840928,3.57408453 C42.5856362,4.09692626 43.0378646,4.51904406 43.5942753,4.51904406 C44.150686,4.51750629 44.6021426,4.09385072 44.6005992,3.57100899 C44.5998275,3.04816727 44.1475991,2.62758723 43.5911884,2.62835612 C43.0347777,2.629125 42.5840928,3.05201169 42.5840928,3.57408453 L42.5840928,3.57408453 Z M35.9372617,12.6630728 C36.0290965,11.4274748 36.3269807,10.1803435 36.7583726,8.99702968 C36.5893658,9.29381924 36.2552107,9.49757374 35.8693503,9.49834263 C35.3129396,9.49911151 34.8607112,9.07776259 34.8599395,8.55568975 C34.8591678,8.03438579 35.3098527,7.60919245 35.8662634,7.60842356 C36.4242175,7.60765468 36.8756742,8.03054137 36.8764459,8.55261421 C36.8764459,8.61258723 36.8718156,8.67256025 36.8594681,8.73022662 C37.4243677,7.26396313 38.1906864,5.90534353 39.0117973,4.79968705 C38.8373884,4.93270414 38.6151328,5.01343705 38.3720408,5.01420594 C37.8156301,5.01497482 37.3634017,4.59208813 37.36263,4.07001529 C37.3610866,3.54871133 37.8117715,3.12351799 38.3681822,3.1227491 C38.926908,3.12198022 39.3783647,3.54486691 39.3799081,4.06693975 C39.3799081,4.18765468 39.3552131,4.30068076 39.3135401,4.40755576 C39.8992762,3.67327068 40.5043053,3.07354047 41.0769221,2.65680486 C44.2479228,0.137169065 47.0307479,-0.535605216 49.1514366,1.20591906 C51.1131509,2.70678237 44.1746093,9.27305935 42.2051779,12.9852356 C40.76206,15.6717194 41.245929,15.7532212 44.9278088,19.0994083 C47.4351296,21.4352806 47.5516595,21.4891025 48.5888522,22.5501637 C49.545786,23.5258786 49.7541506,24.1163822 48.8705303,25.2966205 C47.1627122,27.0865845 45.9148397,28.7050872 42.8055767,31.6891295 C42.2622852,32.2588732 42.4135425,32.6356268 43.0926568,33.2507347 C44.6847168,34.7216115 47.8865863,37.4380818 49.6684896,39.5371376 C50.2951268,40.2237518 50.3437452,41.0226232 49.7379444,41.7707482 C48.6698829,43.2062563 46.8308723,45.1838282 45.220291,46.9791745 C44.440853,47.9064496 44.454744,48.1517239 45.3275602,48.779134 C48.3743138,51.0050558 50.0859905,52.3083156 51.4357301,53.3801412 C53.3727493,54.6926277 52.7414817,55.2954335 51.7181799,56.9831358 C49.6954998,59.6588552 47.89276,61.9324478 45.68178,63.4102446 C44.5751324,64.0860944 42.7291763,64.2875423 42.4436396,62.499116 C42.3626089,61.5995207 43.0656466,60.5692149 44.1151868,59.486625 C43.9523537,59.5911933 43.7563367,59.653473 43.54257,59.653473 C42.9861593,59.6550108 42.533931,59.2344308 42.5331592,58.7100513 C42.5316158,58.1902851 42.9830724,57.7650917 43.5394831,57.7650917 C44.0958938,57.7643228 44.5481222,58.1872095 44.5496656,58.7069757 C44.5496656,58.8861259 44.4971886,59.0491295 44.407669,59.1921421 C45.272768,58.3409865 46.3261669,57.4621511 47.3618161,56.5910045 C47.834881,56.2019487 47.6519832,55.9697455 46.8872079,55.3308022 C46.1139436,54.7633651 45.3730917,54.1882392 44.6291529,53.5969667 C44.7773233,53.7599703 44.8645277,53.9706448 44.8645277,54.2020791 C44.8660711,54.7226142 44.4153862,55.1462698 43.8582038,55.1478076 C43.3017931,55.1478076 42.8495648,54.7256897 42.8495648,54.2051547 C42.8480213,53.6838507 43.2987062,53.2586574 43.8551169,53.2586574 C44.0449602,53.2586574 44.222456,53.3070971 44.3737133,53.3909056 C43.2670657,52.5051502 42.1488423,51.5763372 40.914089,50.5744802 C41.0074673,50.7174928 41.0614877,50.8858786 41.0614877,51.0650288 C41.0622594,51.5871016 40.6108028,52.0092194 40.0551638,52.0107572 C39.4987531,52.012295 39.0465248,51.5901772 39.045753,51.0681043 C39.0449813,50.5468004 39.4956662,50.1231448 40.0520769,50.121607 C40.1902149,50.121607 40.3229509,50.1469802 40.4456545,50.19542 L39.7071177,49.6064541 C38.7162283,48.6607257 38.7146848,48.0025603 39.7958656,46.781571 L40.3383853,46.1710764 C40.1840412,46.2625737 40.0026868,46.3133201 39.8089849,46.3133201 C39.2518025,46.3148579 38.7995741,45.8919712 38.7980307,45.3706673 C38.7980307,44.8478255 39.2487156,44.4257077 39.805898,44.42417 C40.361537,44.4234011 40.8145371,44.8439811 40.8145371,45.3668228 C40.8153088,45.4898444 40.7906137,45.605946 40.7466256,45.712821 C41.5484435,44.8063058 42.3772716,43.8598085 43.0965154,43.027875 C42.9213348,43.1655054 42.696764,43.2470072 42.4513568,43.2477761 C41.8941744,43.248545 41.4427178,42.8264272 41.441946,42.3035854 C41.4411743,41.7822815 41.8918593,41.3586259 42.4482699,41.357857 C43.0054523,41.3563192 43.456909,41.7784371 43.4584524,42.299741 C43.4584524,42.4596691 43.4167795,42.6103705 43.3426943,42.7410809 L44.1514577,41.7930459 C44.7132704,41.0479964 45.0551427,40.9380459 44.3814305,40.236054 C43.7177506,39.6001862 42.8557385,38.8066969 41.9528252,37.9770701 C42.0431165,38.118545 42.0955935,38.285393 42.0955935,38.4622365 C42.097137,38.9850782 41.6456803,39.4079649 41.0892697,39.4095027 C40.5320873,39.4095027 40.0806306,38.9881538 40.0806306,38.4660809 C40.0790872,37.9432392 40.5290004,37.5203525 41.0861828,37.5188147 C41.2690806,37.5188147 41.4411743,37.564179 41.5893447,37.644143 C40.6169765,36.7514676 39.620685,35.8372635 38.7872266,35.0437743 C38.8582249,35.1729469 38.8968109,35.3174973 38.8975826,35.4712743 C38.8975826,35.9948849 38.4468977,36.4185405 37.890487,36.4193094 C37.3325329,36.4200782 36.8810762,35.9987293 36.8803045,35.4751187 C36.8795328,34.9530459 37.329446,34.5293903 37.8874001,34.5278525 C38.0610373,34.5278525 38.2254138,34.5693723 38.3666387,34.6416475 C37.9144104,34.204152 37.5300934,33.8174029 37.2499588,33.5129245 C36.3154049,32.4195701 36.3694254,31.6429964 37.3008923,30.6472905 C37.6034069,30.3420432 37.9676591,29.9606763 38.3758994,29.5316385 C38.2153815,29.6323624 38.0247664,29.6900288 37.818717,29.6907977 C37.2623063,29.6907977 36.8100779,29.2702176 36.8085345,28.7473759 C36.8077628,28.2237653 37.2584477,27.8024164 37.8148584,27.8016475 C38.3712691,27.8001097 38.8234974,28.2206897 38.8234974,28.7435315 C38.8242692,28.8996151 38.7849114,29.0464721 38.7146848,29.1756448 C39.4817753,28.3690845 40.3746562,27.4348894 41.2922322,26.5437518 C41.1494639,26.6183336 40.9820005,26.6606223 40.8052764,26.6613912 C40.2488657,26.6613912 39.7974091,26.2400423 39.7966373,25.7187383 C39.7958656,25.1958966 40.2457788,24.772241 40.8021895,24.7714721 C41.3601436,24.7707032 41.812372,25.192821 41.812372,25.7148939 C41.8131437,25.8717464 41.7714708,26.0232167 41.6981573,26.1539272 C42.0037588,25.8625198 42.3139905,25.5788013 42.6203637,25.3073849 C43.3295751,24.7376412 43.4453332,24.3262878 43.0278323,23.877259 C42.0747571,22.9915036 41.212745,22.2418408 40.4209595,21.5436933 C40.5220549,21.6920881 40.5822491,21.8673939 40.5822491,22.0565396 C40.5837925,22.5786124 40.1315642,23.002268 39.5759252,23.0038058 C39.0195145,23.0045746 38.5672861,22.5816879 38.5665144,22.0596151 C38.5657427,21.5375423 39.0164276,21.1131178 39.5728383,21.1123489 C39.753421,21.11158 39.9231996,21.1577131 40.0705982,21.2346016 C39.0766219,20.3549973 38.1899147,19.542286 37.3610866,18.6188552 C37.4359435,18.7503345 37.4783881,18.9002671 37.4791598,19.0594263 C37.4791598,19.5807302 37.0292466,20.0051547 36.4720642,20.0059236 C35.9141101,20.0074613 35.4634252,19.5838058 35.4626535,19.0632707 C35.4618817,18.5388912 35.9117949,18.1152356 36.4689773,18.1152356 C36.710526,18.1144667 36.9312381,18.1936619 37.1041035,18.3251412 L36.9266078,18.1152356 C36.5229978,17.6269937 35.8438835,16.4529065 35.8438835,14.191616 C35.779059,14.6537158 35.3569277,15.0120162 34.8460485,15.0127851 C34.2888661,15.0143228 33.8374095,14.5906673 33.8366378,14.0678255 C33.835866,13.5472905 34.2857793,13.122866 34.8429617,13.1220971 C35.3631015,13.1205594 35.7898631,13.4873174 35.8469704,13.9601817 C35.8546876,13.5588237 35.8824696,13.1282482 35.9372617,12.6630728 L35.9372617,12.6630728 Z M59.3836824,61.7902041 C62.8610563,50.2361709 64.3365864,37.4819083 64.3157499,25.4726951 C64.3064893,19.7744892 63.7006885,14.0393768 62.4559029,8.45496583 L67.7738308,8.44573921 C68.7600899,14.3261709 69.1706454,20.2888732 69.1814495,26.2408112 C69.2038294,40.0830459 67.3385802,53.4647185 62.0036745,66.4112023 L61.1864222,66.4442644 L59.3782804,66.446571 L57.5554759,66.4496466 L56.7405388,66.4181223 C51.3624167,53.4916295 49.4531795,40.115339 49.4307996,26.2738732 C49.4207672,20.3211664 49.8112579,14.3561574 50.7789958,8.47341906 L55.8839287,8.46573022 C54.656121,14.0539856 54.2818364,19.7914047 54.291097,25.4896106 C54.3111618,37.4980549 55.8299083,50.2477041 59.3443247,61.7902041 L59.3836824,61.7902041 Z M81.6717503,8.47880126 C81.6717503,7.9574973 82.1239786,7.53230396 82.6788459,7.53153507 C83.2368,7.53076619 83.6874849,7.95365288 83.6890284,8.47572572 C83.6890284,8.99856745 83.2398869,9.42068525 82.6819328,9.42145414 C82.2976158,9.42145414 81.9611456,9.22077518 81.7921387,8.92321673 C82.228161,10.1049928 82.5314472,11.3513552 82.6248254,12.5869532 C82.6742156,13.0021511 82.7043127,13.3896691 82.7166602,13.7525827 C82.827788,13.3443049 83.222909,13.0421331 83.6921153,13.0421331 C84.2492977,13.0413642 84.701526,13.4642509 84.7022978,13.9855549 C84.7030695,14.5068588 84.2523846,14.9312833 83.6944304,14.932821 C83.2337131,14.9335899 82.8432224,14.6421826 82.7243774,14.2431313 C82.7058561,16.4213822 82.0491217,17.5624074 81.6555441,18.0421915 L81.5498184,18.1690576 C81.6979888,18.0883246 81.8708542,18.0398849 82.0545238,18.0398849 C82.6109345,18.039116 83.0631628,18.4612338 83.0631628,18.9848444 C83.0647063,19.5061484 82.6140213,19.9305728 82.0576107,19.9313417 C81.5012,19.9321106 81.0481999,19.5092239 81.0481999,18.98792 C81.0474282,18.8787383 81.0659495,18.7757077 81.1006769,18.6788282 C80.332043,19.528446 79.5109321,20.2896421 78.5956712,21.1061978 C78.7392113,21.0331538 78.9035878,20.9893273 79.0764533,20.9893273 C79.6320923,20.9885585 80.0835489,21.4114451 80.0850923,21.9358246 C80.0850923,22.4571286 79.6351791,22.8800153 79.0795402,22.8807842 C78.521586,22.8815531 78.0701294,22.4594353 78.0693577,21.9389002 C78.0693577,21.7551367 78.1233781,21.5844442 78.2182998,21.4406628 C77.4157102,22.1518813 76.5413505,22.9169218 75.5720692,23.8234371 C75.1576552,24.2755414 75.2734133,24.685357 75.9849398,25.2520252 C76.3005736,25.5311304 76.620066,25.8233067 76.938015,26.1208651 C76.8639298,25.9916924 76.8230286,25.8432977 76.8222569,25.687214 C76.8214852,25.1636034 77.2721701,24.739179 77.8285808,24.7384101 C78.3865349,24.7376412 78.8379916,25.159759 78.8387633,25.6841385 C78.8387633,26.2054424 78.3888501,26.6283291 77.8316677,26.629098 C77.6564871,26.6298669 77.4897954,26.5883471 77.3454836,26.5145342 C78.2460817,27.384143 79.1173545,28.2891205 79.8720974,29.0749209 C79.8034143,28.9480549 79.7625131,28.8019667 79.7625131,28.6481897 C79.7617413,28.125348 80.2116546,27.7032302 80.768837,27.7024613 C81.3267911,27.7009236 81.7790195,28.1215036 81.7790195,28.6443453 C81.7805629,29.1664182 81.329878,29.5908426 80.7719238,29.5916115 C80.5674178,29.5916115 80.3760311,29.5354829 80.2170566,29.4370656 C80.6384161,29.8745612 81.0103856,30.2643858 81.3221608,30.5750153 C82.2551712,31.5676457 82.3122785,32.3442194 81.3808115,33.4406493 C81.1145679,33.7335944 80.7510874,34.1011214 80.3258692,34.5170881 C80.4555183,34.4617284 80.5975149,34.4302041 80.7503157,34.4302041 C81.3051829,34.4286664 81.7566396,34.8507842 81.758183,35.3713192 C81.758183,35.8956987 81.3090415,36.3193543 80.7534025,36.3201232 C80.1931333,36.3208921 79.7424483,35.8987743 79.7409049,35.3751637 C79.7409049,35.2436844 79.7717737,35.1175872 79.8219356,35.0037923 C78.996966,35.7918993 78.0145655,36.7007212 77.0560883,37.5864766 C77.2042587,37.5057437 77.374809,37.4596106 77.5584785,37.4596106 C78.1148892,37.4588417 78.5671176,37.8801906 78.5678893,38.4030324 C78.568661,38.9251052 78.1179761,39.3479919 77.5615654,39.3495297 C77.0059264,39.3502986 76.5521546,38.9281808 76.5521546,38.4068768 C76.5513829,38.2292644 76.6054034,38.0616475 76.694923,37.9201727 C75.7935531,38.752875 74.9346279,39.5494397 74.2732632,40.1868453 C73.6003226,40.8911439 73.9445101,41.0003255 74.5078663,41.7438372 L75.3189448,42.687259 C75.2626092,42.5719263 75.2317404,42.4419847 75.2317404,42.3074299 C75.2309686,41.7845881 75.6816536,41.3617014 76.238836,41.3609326 C76.7960184,41.3593948 77.2467033,41.7807437 77.247475,42.3035854 C77.2482468,42.8256583 76.7991053,43.2500827 76.2419229,43.2516205 C76.0219824,43.2516205 75.8182482,43.1854964 75.6530999,43.0740081 C76.3816043,43.9120926 77.2181497,44.857821 78.0199675,45.7574164 C77.9512844,45.6297815 77.9134701,45.4883067 77.9126984,45.3352986 C77.9126984,44.8147635 78.3626116,44.3895701 78.9205657,44.3880324 C79.4762047,44.3872635 79.928433,44.8116879 79.9292048,45.3329919 C79.9299765,45.853527 79.4792915,46.2787203 78.9236526,46.2802581 C78.6952232,46.2802581 78.4868586,46.2095207 78.31708,46.0911124 L78.8804362,46.7177536 C79.9654756,47.9348984 79.9654756,48.5930638 78.9784448,49.5418678 L78.2669182,50.1139182 C78.3726439,50.0777806 78.4868586,50.0585585 78.6064753,50.0585585 C79.1621143,50.0577896 79.6143427,50.4799074 79.6151144,51.0019802 C79.6158861,51.5240531 79.1652012,51.9461709 78.6095622,51.9477086 C78.0523798,51.9492464 77.6009232,51.5271286 77.5993797,51.0050558 C77.5993797,50.8451277 77.6402809,50.6936574 77.7166813,50.5621781 C76.5822517,51.4856088 75.5473742,52.3513732 74.5271593,53.1763867 C74.632885,53.1417869 74.7501866,53.1202581 74.8713468,53.1202581 C75.426214,53.1202581 75.8792141,53.5408381 75.8799858,54.0652176 C75.8807575,54.5865216 75.4293009,55.0094083 74.8744336,55.010946 C74.3164795,55.010946 73.8642511,54.5895971 73.8627077,54.0698309 C73.8627077,53.9029829 73.9082392,53.7484371 73.986183,53.6146511 C73.2738848,54.1851637 72.5592713,54.7410674 71.8184194,55.2908201 C71.0536441,55.9305324 70.8730614,56.1642734 71.346898,56.5517914 C72.3840907,57.4198624 73.4405764,58.2956223 74.3087623,59.1421646 C74.2200144,59.0014586 74.1652223,58.8361484 74.1644505,58.6593049 C74.1644505,58.1380009 74.6151355,57.7143453 75.1730896,57.7128076 C75.7287285,57.7128076 76.1809569,58.1349254 76.1817286,58.6562293 C76.1825004,59.1783022 75.7325872,59.60042 75.1754048,59.6019577 C74.9616381,59.6019577 74.7648493,59.5419847 74.6012445,59.4366475 C75.6554151,60.515393 76.3607679,61.544161 76.2835958,62.4429874 C76.0050046,64.2337203 74.157505,64.0384236 73.0500857,63.3656493 C70.8329319,61.8955414 69.0240184,59.6273309 66.9913059,56.9593004 C65.9618304,55.2739047 65.3290193,54.6734056 67.2614082,53.354768 C68.6080609,52.2783291 70.3151073,50.9689182 73.3556872,48.7330009 C74.2246448,48.1017464 74.2369923,47.8587788 73.4575543,46.9338103 C71.8384841,45.1430773 69.9932997,43.1716565 68.9221513,41.7392239 C68.3117201,40.9934056 68.3595668,40.1945342 68.9831172,39.5056133 C70.758075,37.4004065 73.9514556,34.6731718 75.5373418,33.1969128 C76.2149126,32.5802671 76.3661699,32.2027446 75.8205633,31.6353076 C72.7020397,28.6612608 71.4464499,27.0466025 69.7340015,25.2627896 C68.8465226,24.0848579 69.0533438,23.4943543 70.0071907,22.5140261 C71.0397531,21.4506583 71.1562829,21.3968363 73.6566583,19.0525063 C77.3261906,15.694786 77.8100595,15.6117464 76.3592244,12.9298759 C74.3774455,9.22385072 67.4172958,2.68064029 69.3743797,1.17285701 C71.4888946,-0.574818345 74.2740349,0.0887293165 77.4535245,2.59683183 C78.0392606,3.01894964 78.6581806,3.63559532 79.2585794,4.38679586 C79.2115044,4.27607644 79.1852659,4.1561304 79.1852659,4.03003327 C79.1837225,3.50872932 79.6344074,3.08507374 80.1908181,3.08430486 C80.7480005,3.08353597 81.2002289,3.50565378 81.2010006,4.02695773 C81.2017723,4.55056835 80.7510874,4.97345504 80.1946767,4.97345504 C79.9430957,4.97422392 79.7131229,4.88964658 79.5363989,4.74817176 C80.3575098,5.84767716 81.1230568,7.19783903 81.691815,8.65718255 C81.677924,8.5987473 81.6717503,8.53877428 81.6717503,8.47880126 L81.6717503,8.47880126 Z M73.6790382,3.52333813 C73.6798099,4.04541097 74.1320383,4.46829766 74.6884489,4.46752878 C75.2448596,4.46675989 75.6955446,4.04233543 75.6947728,3.52026259 C75.6940011,2.99818975 75.2417727,2.57684083 74.6853621,2.57684083 C74.1289514,2.5783786 73.6782664,3.00126529 73.6790382,3.52333813 L73.6790382,3.52333813 Z" id="Fill-2"></path>
                    <path d="M57.1894488,97.3510535 C56.9170313,97.9876902 56.5234537,98.5582028 56.0164332,99.0495202 C55.5024671,99.5539087 54.9136442,99.9429645 54.2638553,100.202848 C53.6109795,100.462731 52.9009964,100.594979 52.1524272,100.596517 C51.4254663,100.598054 50.71857,100.462731 50.0510315,100.198234 C49.38658,99.9352756 48.7985287,99.5539087 48.308486,99.0648979 C47.7968351,98.5720427 47.4024858,98.0030679 47.1331553,97.3702756 C46.863053,96.7382522 46.7256867,96.0639402 46.7241433,95.3642549 C46.7233715,94.6599564 46.8584227,93.9764177 47.1262098,93.3351677 C47.3939969,92.6969933 47.7844876,92.1341695 48.2861061,91.6597675 C48.8162783,91.1561479 49.4213074,90.7632478 50.0826721,90.4926003 C50.7409499,90.2234906 51.43164,90.0858602 52.1339059,90.0843224 C52.8662689,90.0827846 53.5723935,90.2165706 54.2291278,90.4818359 C54.8820036,90.7447945 55.4708266,91.1338503 55.9778471,91.636701 C56.5111062,92.1580049 56.917803,92.7377442 57.1879053,93.3613098 C57.4580076,93.981031 57.5946022,94.6507298 57.5953739,95.3465706 C57.5961456,96.0462558 57.4610945,96.7205679 57.1894488,97.3510535 L57.1894488,97.3510535 Z M58.3601492,89.4622945 C57.545212,88.6887963 56.5898217,88.0882972 55.519445,87.675406 C54.4521551,87.2655904 53.3123236,87.0595292 52.1292756,87.061067 C50.9686076,87.0626048 49.8442104,87.2717415 48.7915832,87.6846326 C47.7366409,88.0929105 46.7789354,88.6964852 45.9423901,89.4807478 C45.1197358,90.2496326 44.4753489,91.149228 44.0308377,92.1564672 C43.5832397,93.166013 43.3571255,94.2186165 43.3586689,95.290442 C43.3602124,96.4322361 43.5847831,97.5194393 44.0231205,98.5251407 C44.4606862,99.5331488 45.113562,100.444277 45.9609114,101.24238 C46.777392,102.008189 47.7304672,102.605613 48.7985287,103.018504 C49.8650468,103.432933 50.9948461,103.645145 52.1570576,103.64207 C53.347051,103.640532 54.4837957,103.432933 55.533336,103.027731 C56.5851914,102.617915 57.5482989,102.013571 58.3979635,101.223927 C59.2136724,100.461193 59.8526572,99.5662109 60.2940814,98.5612783 C60.7385926,97.5586524 60.9623916,96.4952846 60.9608482,95.4019303 C60.9593048,94.2455274 60.7378209,93.1567864 60.3025704,92.164156 C59.8680916,91.1730634 59.2144441,90.2642415 58.3601492,89.4622945 L58.3601492,89.4622945 Z M110.398053,100.393531 L110.391879,96.6467549 L117.997188,96.6344528 L117.992557,93.6896237 L110.387249,93.7034636 L110.381075,90.0920112 L118.210954,90.0781713 L118.206324,87.1556398 L106.965439,87.1740931 L106.992449,103.342973 L118.483372,103.323751 L118.47797,100.379691 L110.398053,100.393531 Z M102.094337,97.080406 C102.095109,98.0599654 101.756324,98.8226992 101.055601,99.4162783 C100.340988,100.021391 99.3686197,100.328945 98.1631918,100.330482 C97.443948,100.33202 96.797246,100.212074 96.2400636,99.9791021 C95.6929136,99.7507433 95.2121315,99.3962873 94.8108367,98.9264987 C94.6132762,98.6889132 94.4658776,98.3975058 94.3779014,98.0645787 C94.3130768,97.8123844 94.2335896,97.2687828 94.2312744,96.1093044 L94.2166117,87.1271911 L91.0440676,87.1333422 L91.059502,96.2023395 C91.0618172,97.467924 91.1497934,98.3921237 91.3288326,99.0226093 C91.5132739,99.6700103 91.8281359,100.262821 92.2672451,100.788738 C92.9548483,101.633742 93.8145452,102.287295 94.8200974,102.727097 C95.8148455,103.163054 96.9415578,103.382187 98.1685939,103.380649 C100.250697,103.377573 101.967004,102.80091 103.274299,101.660653 C104.600887,100.506557 105.272284,98.9849339 105.269197,97.1396102 L105.252219,87.1095067 L102.07736,87.1148889 L102.094337,97.080406 Z M86.1714226,97.2880049 C85.9005486,97.9400193 85.5085145,98.5251407 85.0053525,99.0302981 C84.4782672,99.5662109 83.8840422,99.9744888 83.2365685,100.246674 C82.5890948,100.51809 81.8937743,100.65649 81.1668134,100.658027 C80.4637757,100.658027 79.7746291,100.516553 79.1124926,100.237447 C78.4480411,99.9552666 77.8553595,99.5539087 77.3506541,99.0449069 C76.8428618,98.5420562 76.4515994,97.9561659 76.1799537,97.3056893 C75.9129383,96.6575193 75.7740286,95.9632163 75.7724851,95.2427711 C75.7709417,94.5146371 75.908308,93.8103386 76.1737799,93.1537109 C76.441567,92.498621 76.8305143,91.9181129 77.3313611,91.429871 C77.8569029,90.9162558 78.4573017,90.5148979 79.1155795,90.2373305 C79.7684553,89.9613008 80.4537434,89.8213638 81.1490638,89.819826 C81.8760248,89.8182882 82.5752038,89.9566875 83.2257644,90.2234906 C83.8755533,90.4956758 84.4605176,90.8924204 84.965223,91.4083422 C85.4969387,91.9434861 85.9013203,92.5378341 86.1706509,93.1790841 C86.4407532,93.8187963 86.576576,94.5069483 86.5781195,95.2243179 C86.5796629,95.9439942 86.4438401,96.6390661 86.1714226,97.2880049 L86.1714226,97.2880049 Z M88.1068983,100.713387 C89.3177282,99.2609636 89.9289311,97.5448125 89.9258442,95.6072226 C89.9243008,94.4269843 89.7028169,93.3159456 89.2721967,92.3025553 C88.8423482,91.2883961 88.1925593,90.3572765 87.3436665,89.5361075 C86.5325879,88.7464627 85.5849148,88.1305859 84.5199401,87.7084681 C83.4595958,87.287888 82.3236228,87.0749069 81.1444335,87.0764447 C79.9883957,87.0779825 78.8701723,87.2940391 77.8214038,87.7146192 C76.7718635,88.136737 75.8180166,88.7549204 74.990732,89.5537918 C74.1727079,90.3426677 73.5344949,91.2630229 73.0915271,92.2933287 C72.6477877,93.3236344 72.4232169,94.3985355 72.4255321,95.4918898 C72.428619,97.4894528 73.0398218,99.2640391 74.2398476,100.764134 C75.4182653,102.240393 76.9933474,103.229947 78.9203342,103.718189 C80.3333549,104.718509 81.6938987,105.492007 82.9595207,106.016386 C84.2729895,106.559988 85.4799608,106.836018 86.5526527,106.83448 C86.6969645,106.832942 86.808864,106.831404 86.8852643,106.828329 C86.9794143,106.82064 87.0743359,106.809107 87.170801,106.789116 L87.2989067,106.763742 L87.3961435,106.678396 L89.4929089,104.852295 L89.7545222,104.627011 L89.6310469,104.305617 L89.5415273,104.072645 L89.3925851,103.682052 L88.9820297,103.763554 C88.6941778,103.820451 88.4248473,103.864277 88.1863856,103.892726 C87.9510107,103.921175 87.7341572,103.931939 87.541227,103.933477 C86.9315676,103.933477 86.2825504,103.8489 85.6157837,103.67667 C85.2569335,103.584403 84.8664428,103.456768 84.4466267,103.30376 C85.9329609,102.707875 87.1638555,101.842879 88.1068983,100.713387 L88.1068983,100.713387 Z M67.8685209,93.8472451 C67.8623471,93.8441695 67.5220183,93.6550238 67.5220183,93.6550238 C65.2083994,92.3217774 64.9568184,91.6036389 64.9560467,91.356058 C64.9560467,90.9969888 65.1080757,90.7194213 65.4345136,90.4818359 C65.7995375,90.2165706 66.2918953,90.0827846 66.8992396,90.0812469 C67.4255532,90.0797091 67.9634426,90.1865841 68.4936147,90.3964897 C69.0438516,90.6140841 69.6589131,90.9762289 70.3210495,91.4690841 L71.0873683,92.0365211 L71.0819662,88.4127666 L70.8388742,88.2759051 C70.1998894,87.9145292 69.5547308,87.6438817 68.9250066,87.4693449 C68.2891087,87.2940391 67.6362329,87.2056174 66.981042,87.2071551 C65.4916209,87.2086929 64.2483787,87.6200463 63.2875864,88.4266066 C62.3051858,89.2523889 61.8074259,90.3257522 61.8105128,91.6128656 C61.8120562,92.531683 62.0775282,93.3382433 62.6022983,94.0125553 C63.1039168,94.6538053 64.2568676,95.5088053 66.1267471,96.619844 C67.5096707,97.4294798 68.0220933,97.8585175 68.2073063,98.0776497 C68.4419094,98.3559861 68.5561241,98.6650778 68.5561241,99.0302981 C68.5568958,99.4624114 68.4025517,99.7807298 68.0676249,100.031386 C67.699514,100.309723 67.1677984,100.448891 66.4894559,100.450429 C65.8265477,100.451966 65.1937367,100.302034 64.6087723,100.002937 C64.004515,99.692308 63.3524109,99.171004 62.6702097,98.4505589 L61.8421533,97.574799 L61.8490988,101.788288 L62.0350835,101.931301 C62.7141978,102.452605 63.434985,102.838585 64.1750652,103.073864 C64.9128303,103.314525 65.7432019,103.432933 66.6461152,103.431395 C68.1293625,103.429857 69.3695178,103.018504 70.3341688,102.215019 C71.3227431,101.389237 71.8235899,100.327407 71.820503,99.0633602 C71.8189596,97.9784636 71.5504007,97.0504195 71.0233154,96.3030634 C70.5054908,95.5687783 69.4737001,94.7652936 67.8685209,93.8472451 L67.8685209,93.8472451 Z M38.5400444,99.8307073 C38.0955332,100.16671 37.3438772,100.338171 36.3035976,100.341247 L33.632672,100.344322 L33.6249548,96.2154105 L35.9146503,96.2131039 C37.0884376,96.2100283 37.9435042,96.3899474 38.45284,96.7490166 C38.9151007,97.0719483 39.1412149,97.5871012 39.1427583,98.3183107 C39.1435301,99.0256848 38.9467413,99.5208467 38.5400444,99.8307073 L38.5400444,99.8307073 Z M33.6126072,89.1124519 L35.3898802,89.1093763 C36.2866197,89.1078386 36.9286914,89.2570022 37.3014326,89.5507163 C37.6463917,89.8229015 37.8138551,90.2750058 37.8138551,90.9308647 C37.8153986,91.6613053 37.593143,92.1764582 37.137056,92.5155364 C36.6400678,92.8807567 35.829761,93.0683647 34.7300589,93.0699024 L33.6203244,93.0714402 L33.6126072,89.1124519 Z M39.6613547,94.1178925 C40.050302,93.8533961 40.3759681,93.5473799 40.6260057,93.1944618 C41.0905816,92.5455229 41.3236413,91.7328116 41.3220978,90.7809321 C41.3197826,89.25854 40.8035014,88.0567729 39.7840583,87.2171506 C38.7947123,86.4005949 37.3955825,85.9861659 35.6237116,85.9892415 L30.2455895,85.9976992 L30.2741431,103.494444 L36.5582654,103.484448 C38.3957326,103.481373 39.884382,103.032344 40.9802255,102.144282 C42.1077096,101.234691 42.6780112,100.0014 42.6756961,98.4820832 C42.6733809,97.294156 42.2960094,96.265388 41.5528423,95.430379 C41.0604845,94.8744753 40.4238148,94.4377487 39.6613547,94.1178925 L39.6613547,94.1178925 Z M16.7057484,87.2417549 L13.3117204,87.2471371 L13.3379589,103.508284 L24.8358268,103.488293 L24.8311965,100.581139 L16.7273566,100.594979 L16.7057484,87.2417549 Z M3.755502,96.2546237 L11.3152788,96.2415526 L11.3098767,93.1490976 L3.75009995,93.1613997 L3.74315447,89.1332118 L11.5267302,89.1216785 L11.5213282,86.05229 L0.361474013,86.0699744 L0.390027682,103.527506 L11.7976042,103.508284 L11.7922022,100.414291 L3.76244749,100.428131 L3.755502,96.2546237 Z" id="Fill-4"></path>
                    <path d="M9.11749515,77.0161241 C9.11981031,78.2309622 9.45859573,79.1966817 10.1361666,79.9117446 C10.8129657,80.6260387 11.7166507,80.9820324 12.8495368,80.9804946 C13.9816512,80.9789568 14.8837928,80.6198876 15.5590485,79.902518 C16.2335325,79.1859173 16.5700027,78.2186601 16.5669158,77.0038219 L16.5568835,70.363732 L17.4952959,70.3621942 L17.5068717,76.9530755 C17.5091869,78.4770054 17.0901425,79.6849236 16.2489669,80.5814433 C15.4077912,81.4764254 14.2741334,81.9254541 12.8472217,81.9285297 C11.425712,81.9300674 10.2943693,81.4864209 9.45628057,80.5975899 C8.61742008,79.7056835 8.19914742,78.4985342 8.19606054,76.9684532 L8.18525644,70.3768031 L9.10591933,70.3752653 L9.11749515,77.0161241 Z" id="Fill-6"></path>
                    <polygon id="Fill-8" points="21.1130458 80.8890742 21.0968396 70.9089483 21.9256677 70.9074105 29.1891037 79.6050364 29.1752127 70.8951084 29.9716286 70.8935706 29.9878347 80.8736965 29.2523848 80.8752343 21.8963424 72.0622756 21.9102333 80.8875364"></polygon>
                    <polygon id="Fill-10" points="33.5992565 71.033277 34.4550948 71.0317392 34.4720727 81.012634 33.6154626 81.0134029"></polygon>
                    <polygon id="Fill-12" points="37.3350024 71.0272797 38.2070469 71.0257419 41.611879 79.3965917 45.0190262 71.0149775 45.862517 71.0134397 41.6867359 81.1773291 41.559402 81.1773291"></polygon>
                    <polygon id="Fill-14" points="48.2739901 80.9897212 48.257784 71.0095953 53.6274172 71.0003687 53.6281889 71.6431565 49.0580584 71.6508453 49.0634605 75.6106025 53.4861923 75.6044514 53.4877357 76.2472392 49.0650039 76.2549281 49.0711777 80.3169469 53.7555228 80.3092581 53.7562945 80.9804946"></polygon>
                    <path d="M57.2784282,70.9942176 L59.6892839,70.9911421 C60.7411393,70.9880665 61.5483592,71.2025854 62.1109437,71.6323921 C62.6727564,72.0637365 62.9544345,72.6788444 62.9552062,73.4823291 C62.9559779,74.0966682 62.8008621,74.6041322 62.4875434,75.0101034 C62.1749965,75.413768 61.7003882,75.7197842 61.0691206,75.9258453 C61.2489316,76.0296448 61.4125364,76.1495908 61.5583916,76.2879901 C61.7050185,76.4271583 61.8362111,76.5840108 61.9558278,76.7593165 L64.6884911,80.9628103 L63.7902081,80.964348 L62.2074088,78.5116052 C61.8933184,78.0325899 61.6255313,77.6366142 61.3986454,77.3267536 C61.1717595,77.0161241 60.9919485,76.7939164 60.8584409,76.6632059 C60.6832602,76.4879002 60.4532874,76.3610342 60.1638922,76.2864523 C59.876812,76.2157149 59.4546808,76.1780396 58.8990418,76.1795773 L58.0864198,76.1811151 L58.094137,80.9735746 L57.2946343,80.9743435 L57.2784282,70.9942176 Z M58.0787026,71.6654541 L58.0848764,75.493732 L58.6922206,75.4921942 C59.4477353,75.4906565 59.9701902,75.4722032 60.261129,75.4329901 C60.5551546,75.3945459 60.8005618,75.3314973 60.9981223,75.2392311 C61.3616028,75.0777653 61.6332485,74.8509442 61.8138312,74.5626124 C61.9944138,74.271205 62.0854769,73.9121358 62.0839335,73.4854047 C62.0839335,72.9041277 61.8801992,72.4535612 61.4704154,72.1367806 C61.0614034,71.8184622 60.4826128,71.6608408 59.7340437,71.6623786 L58.0787026,71.6654541 Z" id="Fill-18"></path>
                    <path d="M71.9493804,72.3892824 C71.5388249,72.1101772 71.1467908,71.9056538 70.7771365,71.77033 C70.4067105,71.6380818 70.0385997,71.5734955 69.675891,71.5734955 C69.0739488,71.5750333 68.5846778,71.7526457 68.2034477,72.1071016 C67.8214459,72.4630953 67.6300592,72.9105863 67.6316026,73.4449613 C67.6316026,73.8832257 67.7550779,74.2392194 68.0012569,74.5144802 C68.2466641,74.7889721 68.7760645,75.1011394 69.5879148,75.4471376 C69.6334463,75.4648219 69.7059881,75.4948085 69.8009097,75.5324838 C70.7192575,75.9076996 71.3304603,76.2683067 71.6383769,76.6150737 C71.853687,76.8480459 72.0149766,77.1148489 72.1261044,77.4124074 C72.2380039,77.7130414 72.2935678,78.0313597 72.2951113,78.3689002 C72.295883,79.1654649 72.0226939,79.8182482 71.4747721,80.3303255 C70.9253069,80.8439406 70.2245844,81.0992104 69.3679744,81.1007482 C68.9404411,81.102286 68.5136795,81.028473 68.0900048,80.881616 C67.6678735,80.734759 67.2411119,80.5133201 66.8104917,80.2165306 L66.8089483,79.2477356 C67.2758393,79.6114182 67.7211222,79.8843723 68.1393949,80.0619847 C68.5561241,80.2388282 68.9612775,80.32725 69.3533117,80.32725 C70.0007854,80.3257122 70.5124363,80.1457932 70.889036,79.7897995 C71.2664075,79.4307302 71.4531639,78.9471016 71.4523922,78.3327626 C71.4516205,77.8837338 71.3227431,77.5115935 71.0665318,77.2247995 C70.8080053,76.9380054 70.2214976,76.6020027 69.3062367,76.2175603 C68.3577919,75.825429 67.7087747,75.4271466 67.3591852,75.0265576 C67.0103674,74.6236619 66.8359585,74.1100468 66.8344151,73.4887878 C66.8328716,72.712214 67.0975718,72.0786529 67.6269723,71.5857977 C68.1571445,71.0921736 68.849378,70.8438237 69.7044446,70.842286 C70.090305,70.842286 70.4684482,70.895339 70.836559,71.0014451 C71.2038981,71.1083201 71.5750958,71.2736304 71.9486087,71.4973759 L71.9493804,72.3892824 Z" id="Fill-20"></path>
                    <polygon id="Fill-22" points="75.4681184 70.9641542 76.3231851 70.9626165 76.3401629 80.9435112 75.4843246 80.9442801"></polygon>
                    <path d="M83.4717118,70.9521596 C84.2279982,70.9506219 84.8716133,71.022897 85.4025572,71.1666785 C85.9342728,71.3096911 86.4127397,71.5380499 86.8395013,71.8532927 C87.4615082,72.3169303 87.9484641,72.9074339 88.2957384,73.6240346 C88.6445562,74.3367909 88.8197368,75.1072136 88.8212803,75.9306893 C88.8228237,76.7487828 88.6499582,77.5145922 88.3034556,78.2311929 C87.9577247,78.9485625 87.4738558,79.5390661 86.8533923,80.0057792 C86.425859,80.3256353 85.9458486,80.5586075 85.4071875,80.7077711 C84.8700699,80.8577037 84.2303133,80.9315166 83.487918,80.9315166 L80.0545322,80.9368988 L80.0383261,70.9567729 L83.4717118,70.9521596 Z M83.2756947,71.6687603 L80.8810452,71.6726048 L80.8941644,80.2326003 L83.2895857,80.2295247 C83.9401463,80.227987 84.5027308,80.174165 84.9711653,80.0634456 C85.441915,79.9550328 85.8455249,79.7820337 86.1866255,79.5482927 C86.7376342,79.1769213 87.1697978,78.6725328 87.4823447,78.0328206 C87.7964351,77.3977217 87.9538661,76.6980364 87.9530944,75.9422226 C87.9515509,75.1856398 87.7918047,74.4874924 87.4761709,73.8493179 C87.1605371,73.2096057 86.7276018,72.7044483 86.174278,72.3338458 C85.8331774,72.1008737 85.4287957,71.9324879 84.958046,71.824844 C84.4888398,71.7210445 83.9262554,71.6672226 83.2756947,71.6687603 L83.2756947,71.6687603 Z" id="Fill-26"></path>
                    <path d="M90.3297629,80.9205985 L94.4399477,71.3033862 L94.7440057,71.3033862 L98.8850594,80.9067585 L98.0863284,80.9067585 L96.6810249,77.5928647 L92.5229933,77.5990157 L91.1354394,80.9190607 L90.3297629,80.9205985 Z M92.7861501,76.9546902 L96.4170964,76.9485391 L94.5958353,72.6250994 L92.7861501,76.9546902 Z" id="Fill-30"></path>
                    <path d="M105.200436,70.9160989 C105.955951,70.9145612 106.599566,70.9868363 107.131282,71.1306178 C107.662226,71.2736304 108.141464,71.503527 108.565911,71.817232 C109.190233,72.2808696 109.677189,72.872911 110.024463,73.5879739 C110.372509,74.302268 110.548461,75.0711529 110.550005,75.8946286 C110.551548,76.7127221 110.377911,77.4785315 110.03218,78.19667 C109.686449,78.9125018 109.20258,79.5030054 108.579802,79.9697185 C108.155355,80.2895746 107.673802,80.5240845 107.13514,80.6724793 C106.598794,80.821643 105.958266,80.8954559 105.216643,80.8962248 L101.781713,80.9008381 L101.765507,70.92225 L105.200436,70.9160989 Z M105.004419,71.6326996 L102.608226,71.6365441 L102.622117,80.1980773 L105.01831,80.193464 C105.670414,80.1919263 106.22914,80.1396421 106.69989,80.0289227 C107.17064,79.9189721 107.573478,79.745973 107.913807,79.5137698 C108.466359,79.1408606 108.898522,78.6364721 109.210298,77.9982977 C109.52516,77.361661 109.680276,76.6635135 109.679504,75.9061619 C109.678732,75.1511169 109.520529,74.4529694 109.203352,73.8132572 C108.889262,73.173545 108.456326,72.6683876 107.901459,72.2993228 C107.56113,72.0663507 107.156749,71.8964272 106.686771,71.790321 C106.214478,71.6849838 105.655752,71.6326996 105.004419,71.6326996 L105.004419,71.6326996 Z" id="Fill-34"></path>
                </g>
                <path d="M51.1990882,139.105 L50.30735,139.105 L47.6421546,131.875908 L48.5890004,131.875908 L50.7381898,138.007861 L50.7682484,138.007861 L52.9174379,131.875908 L53.8642836,131.875908 L51.1990882,139.105 Z M55.1832833,139.105 L55.1832833,133.894844 L56.0549826,133.894844 L56.0549826,139.105 L55.1832833,139.105 Z M55.619133,133.018135 C55.3235568,133.018135 55.0780783,132.772656 55.0780783,132.47708 C55.0780783,132.176494 55.3235568,131.936025 55.619133,131.936025 C55.9197189,131.936025 56.1651974,132.176494 56.1651974,132.47708 C56.1651974,132.772656 55.9197189,133.018135 55.619133,133.018135 Z M60.0842656,138.378584 C60.9910331,138.378584 61.5972148,137.627119 61.5972148,136.479883 C61.5972148,135.332646 60.9910331,134.571162 60.0842656,134.571162 C59.1875175,134.571162 58.6013749,135.312607 58.6013749,136.479883 C58.6013749,137.647158 59.1875175,138.378584 60.0842656,138.378584 Z M60.1143242,141.068828 C58.9670878,141.068828 58.0603202,140.422568 57.915037,139.53584 L58.8117851,139.53584 C58.9821171,140.011768 59.498123,140.327383 60.1493925,140.327383 C61.0511503,140.327383 61.5972148,139.806367 61.5972148,139.029854 L61.5972148,138.208252 L61.5771757,138.208252 C61.2565507,138.774355 60.6403495,139.145078 59.9089238,139.145078 C58.5813359,139.145078 57.7096367,138.098037 57.7096367,136.479883 C57.7096367,134.846699 58.5813359,133.804668 59.9289628,133.804668 C60.6653984,133.804668 61.2765898,134.165371 61.6222636,134.771553 L61.6372929,134.771553 L61.6372929,133.894844 L62.468914,133.894844 L62.468914,138.999795 C62.468914,140.242217 61.5521269,141.068828 60.1143242,141.068828 Z M64.3790661,139.105 L64.3790661,133.894844 L65.2507653,133.894844 L65.2507653,139.105 L64.3790661,139.105 Z M64.8149157,133.018135 C64.5193396,133.018135 64.2738611,132.772656 64.2738611,132.47708 C64.2738611,132.176494 64.5193396,131.936025 64.8149157,131.936025 C65.1155017,131.936025 65.3609802,132.176494 65.3609802,132.47708 C65.3609802,132.772656 65.1155017,133.018135 64.8149157,133.018135 Z M67.2060054,139.105 L67.2060054,131.875908 L68.0777046,131.875908 L68.0777046,139.105 L67.2060054,139.105 Z M71.7062063,138.45373 C72.5278079,138.45373 73.1590384,137.877607 73.1590384,137.126143 L73.1590384,136.700312 L71.7663235,136.785479 C71.0649563,136.830566 70.6641751,137.141172 70.6641751,137.632129 C70.6641751,138.128096 71.0799856,138.45373 71.7062063,138.45373 Z M71.5108255,139.195176 C70.473804,139.195176 69.7774466,138.568955 69.7774466,137.632129 C69.7774466,136.740391 70.4637845,136.179297 71.6661282,136.10916 L73.1590384,136.023994 L73.1590384,135.588145 C73.1590384,134.951904 72.7382181,134.571162 72.0168118,134.571162 C71.3455032,134.571162 70.9246829,134.886777 70.8144681,135.397773 L69.9728274,135.397773 C70.0329446,134.496016 70.8044485,133.804668 72.0368509,133.804668 C73.2592337,133.804668 74.0307376,134.465957 74.0307376,135.502979 L74.0307376,139.105 L73.2041263,139.105 L73.2041263,138.208252 L73.1840872,138.208252 C72.8734817,138.804414 72.2121927,139.195176 71.5108255,139.195176 Z M77.8446007,139.195176 C76.5170128,139.195176 75.615255,138.133105 75.615255,136.499922 C75.615255,134.866738 76.512003,133.804668 77.8245616,133.804668 C78.5710167,133.804668 79.1721885,134.170381 79.482794,134.741494 L79.5028331,134.741494 L79.5028331,131.875908 L80.3745323,131.875908 L80.3745323,139.105 L79.5429112,139.105 L79.5429112,138.223281 L79.5278819,138.223281 C79.1922276,138.824453 78.5960655,139.195176 77.8446007,139.195176 Z M78.0099229,134.571162 C77.088126,134.571162 76.5069932,135.322627 76.5069932,136.499922 C76.5069932,137.682227 77.088126,138.428682 78.0099229,138.428682 C78.906671,138.428682 79.5078428,137.667197 79.5078428,136.499922 C79.5078428,135.337656 78.906671,134.571162 78.0099229,134.571162 Z M84.003034,138.45373 C84.8246356,138.45373 85.4558661,137.877607 85.4558661,137.126143 L85.4558661,136.700312 L84.0631512,136.785479 C83.361784,136.830566 82.9610028,137.141172 82.9610028,137.632129 C82.9610028,138.128096 83.3768133,138.45373 84.003034,138.45373 Z M83.8076532,139.195176 C82.7706317,139.195176 82.0742743,138.568955 82.0742743,137.632129 C82.0742743,136.740391 82.7606122,136.179297 83.9629559,136.10916 L85.4558661,136.023994 L85.4558661,135.588145 C85.4558661,134.951904 85.0350458,134.571162 84.3136395,134.571162 C83.6423309,134.571162 83.2215106,134.886777 83.1112958,135.397773 L82.2696551,135.397773 C82.3297723,134.496016 83.1012762,133.804668 84.3336786,133.804668 C85.5560614,133.804668 86.3275653,134.465957 86.3275653,135.502979 L86.3275653,139.105 L85.500954,139.105 L85.500954,138.208252 L85.4809149,138.208252 C85.1703094,138.804414 84.5090204,139.195176 83.8076532,139.195176 Z M98.2636899,139.105 L97.4220492,139.105 L97.4220492,133.534141 L97.3869809,133.534141 L95.0824887,139.054902 L94.3210043,139.054902 L92.0165121,133.534141 L91.9814438,133.534141 L91.9814438,139.105 L91.1398032,139.105 L91.1398032,131.875908 L92.1868442,131.875908 L94.6817075,137.907666 L94.7217856,137.907666 L97.2166489,131.875908 L98.2636899,131.875908 L98.2636899,139.105 Z M100.309106,139.105 L100.309106,133.894844 L101.180805,133.894844 L101.180805,139.105 L100.309106,139.105 Z M100.744955,133.018135 C100.449379,133.018135 100.203901,132.772656 100.203901,132.47708 C100.203901,132.176494 100.449379,131.936025 100.744955,131.936025 C101.045541,131.936025 101.29102,132.176494 101.29102,132.47708 C101.29102,132.772656 101.045541,133.018135 100.744955,133.018135 Z M103.090957,139.105 L103.090957,133.894844 L103.912559,133.894844 L103.912559,134.726465 L103.932598,134.726465 C104.223164,134.165371 104.779248,133.804668 105.58582,133.804668 C106.728047,133.804668 107.389336,134.541104 107.389336,135.723408 L107.389336,139.105 L106.517637,139.105 L106.517637,135.878711 C106.517637,135.03707 106.121865,134.576172 105.320303,134.576172 C104.498701,134.576172 103.962656,135.157305 103.962656,136.039023 L103.962656,139.105 L103.090957,139.105 Z M111.318424,134.561143 C110.501832,134.561143 109.930719,135.187363 109.875611,136.054053 L112.706129,136.054053 C112.68609,135.182354 112.140025,134.561143 111.318424,134.561143 Z M112.68609,137.61209 L113.54276,137.61209 C113.392467,138.523867 112.510748,139.195176 111.373531,139.195176 C109.880621,139.195176 108.973853,138.158154 108.973853,136.519961 C108.973853,134.901807 109.89565,133.804668 111.333453,133.804668 C112.741197,133.804668 113.607887,134.82666 113.607887,136.404736 L113.607887,136.735381 L109.870601,136.735381 L109.870601,136.785479 C109.870601,137.782422 110.456744,138.438701 111.39357,138.438701 C112.054859,138.438701 112.540806,138.103047 112.68609,137.61209 Z M117.1913,139.195176 C115.863712,139.195176 114.961955,138.133105 114.961955,136.499922 C114.961955,134.866738 115.858703,133.804668 117.171261,133.804668 C117.917716,133.804668 118.518888,134.170381 118.829494,134.741494 L118.849533,134.741494 L118.849533,131.875908 L119.721232,131.875908 L119.721232,139.105 L118.889611,139.105 L118.889611,138.223281 L118.874582,138.223281 C118.538927,138.824453 117.942765,139.195176 117.1913,139.195176 Z M117.356623,134.571162 C116.434826,134.571162 115.853693,135.322627 115.853693,136.499922 C115.853693,137.682227 116.434826,138.428682 117.356623,138.428682 C118.253371,138.428682 118.854543,137.667197 118.854543,136.499922 C118.854543,135.337656 118.253371,134.571162 117.356623,134.571162 Z M125.909724,133.894844 L125.909724,139.105 L125.083113,139.105 L125.083113,138.25835 L125.063074,138.25835 C124.752468,138.859521 124.211413,139.195176 123.409851,139.195176 C122.272634,139.195176 121.606335,138.45874 121.606335,137.276436 L121.606335,133.894844 L122.478035,133.894844 L122.478035,137.121133 C122.478035,137.967783 122.873806,138.423672 123.680378,138.423672 C124.527029,138.423672 125.038025,137.842539 125.038025,136.955811 L125.038025,133.894844 L125.909724,133.894844 Z M132.098216,135.603174 L131.246556,135.603174 C131.121312,135.03707 130.680452,134.571162 129.913958,134.571162 C129.0122,134.571162 128.401009,135.317617 128.401009,136.499922 C128.401009,137.712285 129.02222,138.428682 129.923978,138.428682 C130.635364,138.428682 131.101273,138.052949 131.251566,137.426729 L132.108235,137.426729 C131.972972,138.46375 131.101273,139.195176 129.918968,139.195176 C128.476155,139.195176 127.51428,138.178193 127.51428,136.499922 C127.51428,134.856719 128.471146,133.804668 129.908948,133.804668 C131.211487,133.804668 131.988001,134.666348 132.098216,135.603174 Z M135.361005,138.45373 C136.182606,138.45373 136.813837,137.877607 136.813837,137.126143 L136.813837,136.700312 L135.421122,136.785479 C134.719755,136.830566 134.318974,137.141172 134.318974,137.632129 C134.318974,138.128096 134.734784,138.45373 135.361005,138.45373 Z M135.165624,139.195176 C134.128602,139.195176 133.432245,138.568955 133.432245,137.632129 C133.432245,136.740391 134.118583,136.179297 135.320927,136.10916 L136.813837,136.023994 L136.813837,135.588145 C136.813837,134.951904 136.393017,134.571162 135.67161,134.571162 C135.000302,134.571162 134.579481,134.886777 134.469267,135.397773 L133.627626,135.397773 C133.687743,134.496016 134.459247,133.804668 135.691649,133.804668 C136.914032,133.804668 137.685536,134.465957 137.685536,135.502979 L137.685536,139.105 L136.858925,139.105 L136.858925,138.208252 L136.838886,138.208252 C136.52828,138.804414 135.866991,139.195176 135.165624,139.195176 Z M143.853989,135.603174 L143.002329,135.603174 C142.877085,135.03707 142.436225,134.571162 141.669731,134.571162 C140.767973,134.571162 140.156782,135.317617 140.156782,136.499922 C140.156782,137.712285 140.777993,138.428682 141.679751,138.428682 C142.391137,138.428682 142.857046,138.052949 143.007339,137.426729 L143.864009,137.426729 C143.728745,138.46375 142.857046,139.195176 141.674741,139.195176 C140.231928,139.195176 139.270053,138.178193 139.270053,136.499922 C139.270053,134.856719 140.226919,133.804668 141.664721,133.804668 C142.96726,133.804668 143.743774,134.666348 143.853989,135.603174 Z M145.443516,139.105 L145.443516,133.894844 L146.315215,133.894844 L146.315215,139.105 L145.443516,139.105 Z M145.879366,133.018135 C145.58379,133.018135 145.338311,132.772656 145.338311,132.47708 C145.338311,132.176494 145.58379,131.936025 145.879366,131.936025 C146.179952,131.936025 146.42543,132.176494 146.42543,132.47708 C146.42543,132.772656 146.179952,133.018135 145.879366,133.018135 Z M150.384576,139.195176 C148.941764,139.195176 147.969869,138.158154 147.969869,136.499922 C147.969869,134.83668 148.941764,133.804668 150.384576,133.804668 C151.822379,133.804668 152.794274,134.83668 152.794274,136.499922 C152.794274,138.158154 151.822379,139.195176 150.384576,139.195176 Z M150.384576,138.428682 C151.306373,138.428682 151.907545,137.727314 151.907545,136.499922 C151.907545,135.272529 151.306373,134.571162 150.384576,134.571162 C149.46278,134.571162 148.856598,135.272529 148.856598,136.499922 C148.856598,137.727314 149.46278,138.428682 150.384576,138.428682 Z M150.780348,133.143379 L150.018864,133.143379 L151.070914,131.640449 L152.01275,131.640449 L150.780348,133.143379 Z M154.40384,139.105 L154.40384,133.894844 L155.225441,133.894844 L155.225441,134.726465 L155.245481,134.726465 C155.536047,134.165371 156.092131,133.804668 156.898703,133.804668 C158.04093,133.804668 158.702219,134.541104 158.702219,135.723408 L158.702219,139.105 L157.83052,139.105 L157.83052,135.878711 C157.83052,135.03707 157.434748,134.576172 156.633186,134.576172 C155.811584,134.576172 155.275539,135.157305 155.275539,136.039023 L155.275539,139.105 L154.40384,139.105 Z M161.27867,139.155098 C160.958045,139.155098 160.707556,138.904609 160.707556,138.583984 C160.707556,138.263359 160.958045,138.012871 161.27867,138.012871 C161.599295,138.012871 161.849783,138.263359 161.849783,138.583984 C161.849783,138.904609 161.599295,139.155098 161.27867,139.155098 Z M10.3687822,143.875908 L12.9488115,143.875908 C14.306458,143.875908 15.2633232,144.827764 15.2633232,146.19543 C15.2633232,147.568105 14.2964384,148.524971 12.938792,148.524971 L11.27054,148.524971 L11.27054,151.105 L10.3687822,151.105 L10.3687822,143.875908 Z M11.27054,144.677471 L11.27054,147.723408 L12.7133525,147.723408 C13.7453642,147.723408 14.3365166,147.157305 14.3365166,146.19543 C14.3365166,145.238564 13.750374,144.677471 12.7133525,144.677471 L11.27054,144.677471 Z M18.7315125,146.561143 C17.9149207,146.561143 17.3438074,147.187363 17.2887,148.054053 L20.1192175,148.054053 C20.0991785,147.182354 19.553114,146.561143 18.7315125,146.561143 Z M20.0991785,149.61209 L20.9558484,149.61209 C20.8055554,150.523867 19.9238367,151.195176 18.7866199,151.195176 C17.2937097,151.195176 16.3869421,150.158154 16.3869421,148.519961 C16.3869421,146.901807 17.308739,145.804668 18.7465418,145.804668 C20.1542859,145.804668 21.0209753,146.82666 21.0209753,148.404736 L21.0209753,148.735381 L17.2836902,148.735381 L17.2836902,148.785479 C17.2836902,149.782422 17.8698328,150.438701 18.8066589,150.438701 C19.467948,150.438701 19.9538953,150.103047 20.0991785,149.61209 Z M22.6305415,151.105 L22.6305415,145.894844 L23.4521431,145.894844 L23.4521431,146.746504 L23.4721822,146.746504 C23.6425142,146.170381 24.1234517,145.804668 24.7346431,145.804668 C24.8849361,145.804668 25.01519,145.829717 25.0853267,145.839736 L25.0853267,146.686387 C25.01519,146.661338 24.8298287,146.636289 24.6194185,146.636289 C23.9431001,146.636289 23.5022408,147.122236 23.5022408,147.858672 L23.5022408,151.105 L22.6305415,151.105 Z M26.4343851,147.332646 C26.4343851,146.440908 27.2309378,145.804668 28.3781741,145.804668 C29.4552738,145.804668 30.2468167,146.445918 30.2868948,147.327637 L29.4552738,147.327637 C29.3951566,146.82666 28.9893656,146.516055 28.3481156,146.516055 C27.7118753,146.516055 27.291055,146.83167 27.291055,147.287559 C27.291055,147.648262 27.5665921,147.88873 28.1577445,148.039023 L28.9643167,148.234404 C30.0163675,148.499922 30.3971097,148.880664 30.3971097,149.647158 C30.3971097,150.553926 29.5404398,151.195176 28.3230667,151.195176 C27.1808402,151.195176 26.3842874,150.573965 26.2941116,149.652168 L27.1658109,149.652168 C27.2609964,150.193223 27.6717972,150.483789 28.3781741,150.483789 C29.0845511,150.483789 29.5204007,150.183203 29.5204007,149.712285 C29.5204007,149.341562 29.3049808,149.141172 28.7188382,148.985869 L27.8020511,148.75041 C26.885264,148.514951 26.4343851,148.044033 26.4343851,147.332646 Z M34.1909337,151.195176 C32.7481212,151.195176 31.7762267,150.158154 31.7762267,148.499922 C31.7762267,146.83668 32.7481212,145.804668 34.1909337,145.804668 C35.6287364,145.804668 36.600631,146.83668 36.600631,148.499922 C36.600631,150.158154 35.6287364,151.195176 34.1909337,151.195176 Z M34.1909337,150.428682 C35.1127306,150.428682 35.7139025,149.727314 35.7139025,148.499922 C35.7139025,147.272529 35.1127306,146.571162 34.1909337,146.571162 C33.2691368,146.571162 32.6629552,147.272529 32.6629552,148.499922 C32.6629552,149.727314 33.2691368,150.428682 34.1909337,150.428682 Z M38.2101972,151.105 L38.2101972,145.894844 L39.0317987,145.894844 L39.0317987,146.726465 L39.0518378,146.726465 C39.3424042,146.165371 39.8984882,145.804668 40.7050604,145.804668 C41.847287,145.804668 42.5085761,146.541104 42.5085761,147.723408 L42.5085761,151.105 L41.6368769,151.105 L41.6368769,147.878711 C41.6368769,147.03707 41.2411054,146.576172 40.4395429,146.576172 C39.6179413,146.576172 39.0818964,147.157305 39.0818964,148.039023 L39.0818964,151.105 L38.2101972,151.105 Z M46.4376638,146.561143 C45.621072,146.561143 45.0499587,147.187363 44.9948513,148.054053 L47.8253688,148.054053 C47.8053298,147.182354 47.2592653,146.561143 46.4376638,146.561143 Z M47.8053298,149.61209 L48.6619997,149.61209 C48.5117067,150.523867 47.629988,151.195176 46.4927712,151.195176 C44.999861,151.195176 44.0930934,150.158154 44.0930934,148.519961 C44.0930934,146.901807 45.0148903,145.804668 46.452693,145.804668 C47.8604372,145.804668 48.7271266,146.82666 48.7271266,148.404736 L48.7271266,148.735381 L44.9898415,148.735381 L44.9898415,148.785479 C44.9898415,149.782422 45.5759841,150.438701 46.5128102,150.438701 C47.1740993,150.438701 47.6600466,150.103047 47.8053298,149.61209 Z M50.3366928,151.105 L50.3366928,145.894844 L51.1582944,145.894844 L51.1582944,146.746504 L51.1783335,146.746504 C51.3486655,146.170381 51.829603,145.804668 52.4407944,145.804668 C52.5910874,145.804668 52.7213413,145.829717 52.791478,145.839736 L52.791478,146.686387 C52.7213413,146.661338 52.5359799,146.636289 52.3255698,146.636289 C51.6492514,146.636289 51.2083921,147.122236 51.2083921,147.858672 L51.2083921,151.105 L50.3366928,151.105 Z M54.2758001,151.105 L54.2758001,145.894844 L55.1474993,145.894844 L55.1474993,151.105 L54.2758001,151.105 Z M55.1074211,145.143379 L54.3459368,145.143379 L55.3979876,143.640449 L56.3398235,143.640449 L55.1074211,145.143379 Z M58.776001,150.45373 C59.5976026,150.45373 60.228833,149.877607 60.228833,149.126143 L60.228833,148.700312 L58.8361182,148.785479 C58.134751,148.830566 57.7339698,149.141172 57.7339698,149.632129 C57.7339698,150.128096 58.1497803,150.45373 58.776001,150.45373 Z M58.5806202,151.195176 C57.5435987,151.195176 56.8472412,150.568955 56.8472412,149.632129 C56.8472412,148.740391 57.5335791,148.179297 58.7359229,148.10916 L60.228833,148.023994 L60.228833,147.588145 C60.228833,146.951904 59.8080127,146.571162 59.0866065,146.571162 C58.4152979,146.571162 57.9944776,146.886777 57.8842627,147.397773 L57.0426221,147.397773 C57.1027393,146.496016 57.8742432,145.804668 59.1066455,145.804668 C60.3290284,145.804668 61.1005323,146.465957 61.1005323,147.502979 L61.1005323,151.105 L60.2739209,151.105 L60.2739209,150.208252 L60.2538819,150.208252 C59.9432764,150.804414 59.2819873,151.195176 58.5806202,151.195176 Z M65.4218131,149.406689 L66.3185611,149.406689 C66.3386002,150.017881 66.8045084,150.443711 67.4607877,150.443711 C68.2573404,150.443711 68.6881803,149.967783 68.6881803,149.086064 L68.6881803,143.875908 L69.5899381,143.875908 L69.5899381,149.091074 C69.5899381,150.46375 68.7983951,151.275332 67.4657975,151.275332 C66.2634537,151.275332 65.4218131,150.503828 65.4218131,149.406689 Z M75.8686059,145.894844 L75.8686059,151.105 L75.0419945,151.105 L75.0419945,150.25835 L75.0219555,150.25835 C74.71135,150.859521 74.1702953,151.195176 73.3687328,151.195176 C72.231516,151.195176 71.5652172,150.45874 71.5652172,149.276436 L71.5652172,145.894844 L72.4369164,145.894844 L72.4369164,149.121133 C72.4369164,149.967783 72.8326879,150.423672 73.6392602,150.423672 C74.4859105,150.423672 74.9969066,149.842539 74.9969066,148.955811 L74.9969066,145.894844 L75.8686059,145.894844 Z M77.7286603,151.105 L77.7286603,145.894844 L78.5502619,145.894844 L78.5502619,146.746504 L78.570301,146.746504 C78.740633,146.170381 79.2215705,145.804668 79.8327619,145.804668 C79.9830549,145.804668 80.1133088,145.829717 80.1834455,145.839736 L80.1834455,146.686387 C80.1133088,146.661338 79.9279474,146.636289 79.7175373,146.636289 C79.0412189,146.636289 78.6003596,147.122236 78.6003596,147.858672 L78.6003596,151.105 L77.7286603,151.105 Z M81.6677675,151.105 L81.6677675,145.894844 L82.5394668,145.894844 L82.5394668,151.105 L81.6677675,151.105 Z M82.4993886,145.143379 L81.7379043,145.143379 L82.789955,143.640449 L83.731791,143.640449 L82.4993886,145.143379 Z M86.4234666,151.195176 C85.0958787,151.195176 84.1941209,150.133105 84.1941209,148.499922 C84.1941209,146.866738 85.0908689,145.804668 86.4034275,145.804668 C87.1498826,145.804668 87.7510544,146.170381 88.0616599,146.741494 L88.081699,146.741494 L88.081699,143.875908 L88.9533982,143.875908 L88.9533982,151.105 L88.1217771,151.105 L88.1217771,150.223281 L88.1067478,150.223281 C87.7710935,150.824453 87.1749314,151.195176 86.4234666,151.195176 Z M86.5887888,146.571162 C85.6669919,146.571162 85.0858591,147.322627 85.0858591,148.499922 C85.0858591,149.682227 85.6669919,150.428682 86.5887888,150.428682 C87.4855369,150.428682 88.0867087,149.667197 88.0867087,148.499922 C88.0867087,147.337656 87.4855369,146.571162 86.5887888,146.571162 Z M90.9086382,151.105 L90.9086382,145.894844 L91.7803374,145.894844 L91.7803374,151.105 L90.9086382,151.105 Z M91.3444878,145.018135 C91.0489117,145.018135 90.8034331,144.772656 90.8034331,144.47708 C90.8034331,144.176494 91.0489117,143.936025 91.3444878,143.936025 C91.6450738,143.936025 91.8905523,144.176494 91.8905523,144.47708 C91.8905523,144.772656 91.6450738,145.018135 91.3444878,145.018135 Z M98.0189271,147.603174 L97.1672669,147.603174 C97.0420228,147.03707 96.6011634,146.571162 95.8346693,146.571162 C94.9329114,146.571162 94.32172,147.317617 94.32172,148.499922 C94.32172,149.712285 94.942931,150.428682 95.8446888,150.428682 C96.5560755,150.428682 97.0219837,150.052949 97.1722767,149.426729 L98.0289466,149.426729 C97.8936829,150.46375 97.0219837,151.195176 95.839679,151.195176 C94.3968665,151.195176 93.4349915,150.178193 93.4349915,148.499922 C93.4349915,146.856719 94.3918568,145.804668 95.8296595,145.804668 C97.1321986,145.804668 97.9087122,146.666348 98.0189271,147.603174 Z M101.281716,150.45373 C102.103317,150.45373 102.734548,149.877607 102.734548,149.126143 L102.734548,148.700312 L101.341833,148.785479 C100.640466,148.830566 100.239685,149.141172 100.239685,149.632129 C100.239685,150.128096 100.655495,150.45373 101.281716,150.45373 Z M101.086335,151.195176 C100.049314,151.195176 99.3529562,150.568955 99.3529562,149.632129 C99.3529562,148.740391 100.039294,148.179297 101.241638,148.10916 L102.734548,148.023994 L102.734548,147.588145 C102.734548,146.951904 102.313728,146.571162 101.592321,146.571162 C100.921013,146.571162 100.500192,146.886777 100.389978,147.397773 L99.548337,147.397773 C99.6084542,146.496016 100.379958,145.804668 101.61236,145.804668 C102.834743,145.804668 103.606247,146.465957 103.606247,147.502979 L103.606247,151.105 L102.779636,151.105 L102.779636,150.208252 L102.759597,150.208252 C102.448991,150.804414 101.787702,151.195176 101.086335,151.195176 Z M110.44243,151.195176 C108.999618,151.195176 108.027723,150.158154 108.027723,148.499922 C108.027723,146.83668 108.999618,145.804668 110.44243,145.804668 C111.880233,145.804668 112.852128,146.83668 112.852128,148.499922 C112.852128,150.158154 111.880233,151.195176 110.44243,151.195176 Z M110.44243,150.428682 C111.364227,150.428682 111.965399,149.727314 111.965399,148.499922 C111.965399,147.272529 111.364227,146.571162 110.44243,146.571162 C109.520633,146.571162 108.914452,147.272529 108.914452,148.499922 C108.914452,149.727314 109.520633,150.428682 110.44243,150.428682 Z M114.742241,144.637393 L115.61394,144.637393 L115.61394,145.894844 L116.625913,145.894844 L116.625913,146.61124 L115.61394,146.61124 L115.61394,149.707275 C115.61394,150.183203 115.814331,150.398623 116.2602,150.398623 C116.360395,150.398623 116.560786,150.383594 116.620903,150.373574 L116.620903,151.105 C116.515698,151.130049 116.275229,151.145078 116.069829,151.145078 C115.112963,151.145078 114.742241,150.754316 114.742241,149.752363 L114.742241,146.61124 L113.965727,146.61124 L113.965727,145.894844 L114.742241,145.894844 L114.742241,144.637393 Z M120.294492,151.195176 C118.85168,151.195176 117.879785,150.158154 117.879785,148.499922 C117.879785,146.83668 118.85168,145.804668 120.294492,145.804668 C121.732295,145.804668 122.70419,146.83668 122.70419,148.499922 C122.70419,150.158154 121.732295,151.195176 120.294492,151.195176 Z M120.294492,150.428682 C121.216289,150.428682 121.817461,149.727314 121.817461,148.499922 C121.817461,147.272529 121.216289,146.571162 120.294492,146.571162 C119.372696,146.571162 118.766514,147.272529 118.766514,148.499922 C118.766514,149.727314 119.372696,150.428682 120.294492,150.428682 Z M124.313756,151.105 L124.313756,145.894844 L125.135357,145.894844 L125.135357,146.746504 L125.155397,146.746504 C125.325729,146.170381 125.806666,145.804668 126.417857,145.804668 C126.56815,145.804668 126.698404,145.829717 126.768541,145.839736 L126.768541,146.686387 C126.698404,146.661338 126.513043,146.636289 126.302633,146.636289 C125.626314,146.636289 125.185455,147.122236 125.185455,147.858672 L125.185455,151.105 L124.313756,151.105 Z M130.076418,150.378584 C130.983185,150.378584 131.589367,149.627119 131.589367,148.479883 C131.589367,147.332646 130.983185,146.571162 130.076418,146.571162 C129.17967,146.571162 128.593527,147.312607 128.593527,148.479883 C128.593527,149.647158 129.17967,150.378584 130.076418,150.378584 Z M130.106476,153.068828 C128.95924,153.068828 128.052472,152.422568 127.907189,151.53584 L128.803937,151.53584 C128.974269,152.011768 129.490275,152.327383 130.141545,152.327383 C131.043303,152.327383 131.589367,151.806367 131.589367,151.029854 L131.589367,150.208252 L131.569328,150.208252 C131.248703,150.774355 130.632502,151.145078 129.901076,151.145078 C128.573488,151.145078 127.701789,150.098037 127.701789,148.479883 C127.701789,146.846699 128.573488,145.804668 129.921115,145.804668 C130.657551,145.804668 131.268742,146.165371 131.614416,146.771553 L131.629445,146.771553 L131.629445,145.894844 L132.461066,145.894844 L132.461066,150.999795 C132.461066,152.242217 131.544279,153.068828 130.106476,153.068828 Z M136.04448,150.45373 C136.866082,150.45373 137.497312,149.877607 137.497312,149.126143 L137.497312,148.700312 L136.104597,148.785479 C135.40323,148.830566 135.002449,149.141172 135.002449,149.632129 C135.002449,150.128096 135.418259,150.45373 136.04448,150.45373 Z M135.849099,151.195176 C134.812078,151.195176 134.11572,150.568955 134.11572,149.632129 C134.11572,148.740391 134.802058,148.179297 136.004402,148.10916 L137.497312,148.023994 L137.497312,147.588145 C137.497312,146.951904 137.076492,146.571162 136.355086,146.571162 C135.683777,146.571162 135.262957,146.886777 135.152742,147.397773 L134.311101,147.397773 C134.371218,146.496016 135.142722,145.804668 136.375125,145.804668 C137.597507,145.804668 138.369011,146.465957 138.369011,147.502979 L138.369011,151.105 L137.5424,151.105 L137.5424,150.208252 L137.522361,150.208252 C137.211755,150.804414 136.550466,151.195176 135.849099,151.195176 Z M142.182874,151.195176 C140.855287,151.195176 139.953529,150.133105 139.953529,148.499922 C139.953529,146.866738 140.850277,145.804668 142.162835,145.804668 C142.90929,145.804668 143.510462,146.170381 143.821068,146.741494 L143.841107,146.741494 L143.841107,143.875908 L144.712806,143.875908 L144.712806,151.105 L143.881185,151.105 L143.881185,150.223281 L143.866156,150.223281 C143.530501,150.824453 142.934339,151.195176 142.182874,151.195176 Z M142.348197,146.571162 C141.4264,146.571162 140.845267,147.322627 140.845267,148.499922 C140.845267,149.682227 141.4264,150.428682 142.348197,150.428682 C143.244945,150.428682 143.846117,149.667197 143.846117,148.499922 C143.846117,147.337656 143.244945,146.571162 142.348197,146.571162 Z M148.341308,150.45373 C149.162909,150.45373 149.79414,149.877607 149.79414,149.126143 L149.79414,148.700312 L148.401425,148.785479 C147.700058,148.830566 147.299277,149.141172 147.299277,149.632129 C147.299277,150.128096 147.715087,150.45373 148.341308,150.45373 Z M148.145927,151.195176 C147.108905,151.195176 146.412548,150.568955 146.412548,149.632129 C146.412548,148.740391 147.098886,148.179297 148.30123,148.10916 L149.79414,148.023994 L149.79414,147.588145 C149.79414,146.951904 149.37332,146.571162 148.651913,146.571162 C147.980605,146.571162 147.559784,146.886777 147.44957,147.397773 L146.607929,147.397773 C146.668046,146.496016 147.43955,145.804668 148.671952,145.804668 C149.894335,145.804668 150.665839,146.465957 150.665839,147.502979 L150.665839,151.105 L149.839228,151.105 L149.839228,150.208252 L149.819189,150.208252 C149.508583,150.804414 148.847294,151.195176 148.145927,151.195176 Z M155.342813,151.105 L155.342813,145.894844 L156.164415,145.894844 L156.164415,146.726465 L156.184454,146.726465 C156.429932,146.175391 156.960968,145.804668 157.662335,145.804668 C158.373721,145.804668 158.899747,146.165371 159.125186,146.796602 L159.145225,146.796602 C159.435792,146.175391 160.046983,145.804668 160.778409,145.804668 C161.810421,145.804668 162.476719,146.475977 162.476719,147.507988 L162.476719,151.105 L161.60502,151.105 L161.60502,147.708379 C161.60502,146.996992 161.209249,146.576172 160.522911,146.576172 C159.831563,146.576172 159.345616,147.087168 159.345616,147.793545 L159.345616,151.105 L158.473917,151.105 L158.473917,147.613193 C158.473917,146.986973 158.053096,146.576172 157.406837,146.576172 C156.715489,146.576172 156.214512,147.117227 156.214512,147.838633 L156.214512,151.105 L155.342813,151.105 Z M166.405807,146.561143 C165.589215,146.561143 165.018102,147.187363 164.962995,148.054053 L167.793512,148.054053 C167.773473,147.182354 167.227409,146.561143 166.405807,146.561143 Z M167.773473,149.61209 L168.630143,149.61209 C168.47985,150.523867 167.598131,151.195176 166.460915,151.195176 C164.968004,151.195176 164.061237,150.158154 164.061237,148.519961 C164.061237,146.901807 164.983034,145.804668 166.420836,145.804668 C167.828581,145.804668 168.69527,146.82666 168.69527,148.404736 L168.69527,148.735381 L164.957985,148.735381 L164.957985,148.785479 C164.957985,149.782422 165.544127,150.438701 166.480954,150.438701 C167.142243,150.438701 167.62819,150.103047 167.773473,149.61209 Z M172.278684,151.195176 C170.951096,151.195176 170.049338,150.133105 170.049338,148.499922 C170.049338,146.866738 170.946086,145.804668 172.258645,145.804668 C173.0051,145.804668 173.606272,146.170381 173.916877,146.741494 L173.936916,146.741494 L173.936916,143.875908 L174.808616,143.875908 L174.808616,151.105 L173.976994,151.105 L173.976994,150.223281 L173.961965,150.223281 C173.626311,150.824453 173.030149,151.195176 172.278684,151.195176 Z M172.444006,146.571162 C171.522209,146.571162 170.941076,147.322627 170.941076,148.499922 C170.941076,149.682227 171.522209,150.428682 172.444006,150.428682 C173.340754,150.428682 173.941926,149.667197 173.941926,148.499922 C173.941926,147.337656 173.340754,146.571162 172.444006,146.571162 Z M176.763856,151.105 L176.763856,145.894844 L177.635555,145.894844 L177.635555,151.105 L176.763856,151.105 Z M177.199705,145.018135 C176.904129,145.018135 176.65865,144.772656 176.65865,144.47708 C176.65865,144.176494 176.904129,143.936025 177.199705,143.936025 C177.500291,143.936025 177.74577,144.176494 177.74577,144.47708 C177.74577,144.772656 177.500291,145.018135 177.199705,145.018135 Z M181.264057,150.45373 C182.085658,150.45373 182.716889,149.877607 182.716889,149.126143 L182.716889,148.700312 L181.324174,148.785479 C180.622807,148.830566 180.222025,149.141172 180.222025,149.632129 C180.222025,150.128096 180.637836,150.45373 181.264057,150.45373 Z M181.068676,151.195176 C180.031654,151.195176 179.335297,150.568955 179.335297,149.632129 C179.335297,148.740391 180.021635,148.179297 181.223978,148.10916 L182.716889,148.023994 L182.716889,147.588145 C182.716889,146.951904 182.296068,146.571162 181.574662,146.571162 C180.903353,146.571162 180.482533,146.886777 180.372318,147.397773 L179.530678,147.397773 C179.590795,146.496016 180.362299,145.804668 181.594701,145.804668 C182.817084,145.804668 183.588588,146.465957 183.588588,147.502979 L183.588588,151.105 L182.761976,151.105 L182.761976,150.208252 L182.741937,150.208252 C182.431332,150.804414 181.770043,151.195176 181.068676,151.195176 Z M185.428603,151.105 L185.428603,145.894844 L186.250205,145.894844 L186.250205,146.726465 L186.270244,146.726465 C186.56081,146.165371 187.116894,145.804668 187.923466,145.804668 C189.065693,145.804668 189.726982,146.541104 189.726982,147.723408 L189.726982,151.105 L188.855283,151.105 L188.855283,147.878711 C188.855283,147.03707 188.459511,146.576172 187.657949,146.576172 C186.836347,146.576172 186.300302,147.157305 186.300302,148.039023 L186.300302,151.105 L185.428603,151.105 Z M191.847544,144.637393 L192.719244,144.637393 L192.719244,145.894844 L193.731216,145.894844 L193.731216,146.61124 L192.719244,146.61124 L192.719244,149.707275 C192.719244,150.183203 192.919634,150.398623 193.365503,150.398623 C193.465699,150.398623 193.666089,150.383594 193.726207,150.373574 L193.726207,151.105 C193.621001,151.130049 193.380533,151.145078 193.175132,151.145078 C192.218267,151.145078 191.847544,150.754316 191.847544,149.752363 L191.847544,146.61124 L191.071031,146.61124 L191.071031,145.894844 L191.847544,145.894844 L191.847544,144.637393 Z M197.329659,146.561143 C196.513068,146.561143 195.941954,147.187363 195.886847,148.054053 L198.717364,148.054053 C198.697325,147.182354 198.151261,146.561143 197.329659,146.561143 Z M198.697325,149.61209 L199.553995,149.61209 C199.403702,150.523867 198.521984,151.195176 197.384767,151.195176 C195.891857,151.195176 194.985089,150.158154 194.985089,148.519961 C194.985089,146.901807 195.906886,145.804668 197.344689,145.804668 C198.752433,145.804668 199.619122,146.82666 199.619122,148.404736 L199.619122,148.735381 L195.881837,148.735381 L195.881837,148.785479 C195.881837,149.782422 196.46798,150.438701 197.404806,150.438701 C198.066095,150.438701 198.552042,150.103047 198.697325,149.61209 Z M0.894957419,163.105 L0.894957419,157.894844 L1.71655898,157.894844 L1.71655898,158.746504 L1.73659804,158.746504 C1.90693007,158.170381 2.38786757,157.804668 2.99905898,157.804668 C3.14935195,157.804668 3.27960586,157.829717 3.34974257,157.839736 L3.34974257,158.686387 C3.27960586,158.661338 3.09424453,158.636289 2.88383437,158.636289 C2.20751601,158.636289 1.76665664,159.122236 1.76665664,159.858672 L1.76665664,163.105 L0.894957419,163.105 Z M6.62756072,158.561143 C5.81096893,158.561143 5.23985565,159.187363 5.18474822,160.054053 L8.0152658,160.054053 C7.99522674,159.182354 7.44916229,158.561143 6.62756072,158.561143 Z M7.99522674,161.61209 L8.85189666,161.61209 C8.70160369,162.523867 7.81988494,163.195176 6.68266815,163.195176 C5.18975799,163.195176 4.28299041,162.158154 4.28299041,160.519961 C4.28299041,158.901807 5.20478729,157.804668 6.64259002,157.804668 C8.05033416,157.804668 8.91702362,158.82666 8.91702362,160.404736 L8.91702362,160.735381 L5.17973846,160.735381 L5.17973846,160.785479 C5.17973846,161.782422 5.76588104,162.438701 6.70270721,162.438701 C7.36399627,162.438701 7.84994354,162.103047 7.99522674,161.61209 Z M10.436414,159.332646 C10.436414,158.440908 11.2329668,157.804668 12.3802031,157.804668 C13.4573027,157.804668 14.2488457,158.445918 14.2889238,159.327637 L13.4573027,159.327637 C13.3971855,158.82666 12.9913945,158.516055 12.3501445,158.516055 C11.7139043,158.516055 11.293084,158.83167 11.293084,159.287559 C11.293084,159.648262 11.5686211,159.88873 12.1597734,160.039023 L12.9663457,160.234404 C14.0183965,160.499922 14.3991386,160.880664 14.3991386,161.647158 C14.3991386,162.553926 13.5424687,163.195176 12.3250957,163.195176 C11.1828691,163.195176 10.3863164,162.573965 10.2961406,161.652168 L11.1678398,161.652168 C11.2630254,162.193223 11.6738261,162.483789 12.3802031,162.483789 C13.08658,162.483789 13.5224297,162.183203 13.5224297,161.712285 C13.5224297,161.341562 13.3070097,161.141172 12.7208672,160.985869 L11.80408,160.75041 C10.8872929,160.514951 10.436414,160.044033 10.436414,159.332646 Z M18.1929626,163.195176 C16.7501501,163.195176 15.7782556,162.158154 15.7782556,160.499922 C15.7782556,158.83668 16.7501501,157.804668 18.1929626,157.804668 C19.6307654,157.804668 20.6026599,158.83668 20.6026599,160.499922 C20.6026599,162.158154 19.6307654,163.195176 18.1929626,163.195176 Z M18.1929626,162.428682 C19.1147595,162.428682 19.7159314,161.727314 19.7159314,160.499922 C19.7159314,159.272529 19.1147595,158.571162 18.1929626,158.571162 C17.2711658,158.571162 16.6649841,159.272529 16.6649841,160.499922 C16.6649841,161.727314 17.2711658,162.428682 18.1929626,162.428682 Z M22.257314,163.105 L22.257314,155.875908 L23.1290132,155.875908 L23.1290132,163.105 L22.257314,163.105 Z M29.3175052,157.894844 L29.3175052,163.105 L28.4908939,163.105 L28.4908939,162.25835 L28.4708548,162.25835 C28.1602493,162.859521 27.6191947,163.195176 26.8176322,163.195176 C25.6804154,163.195176 25.0141165,162.45874 25.0141165,161.276436 L25.0141165,157.894844 L25.8858157,157.894844 L25.8858157,161.121133 C25.8858157,161.967783 26.2815872,162.423672 27.0881595,162.423672 C27.9348099,162.423672 28.445806,161.842539 28.445806,160.955811 L28.445806,157.894844 L29.3175052,157.894844 Z M35.5059972,159.603174 L34.654337,159.603174 C34.5290929,159.03707 34.0882335,158.571162 33.3217394,158.571162 C32.4199816,158.571162 31.8087901,159.317617 31.8087901,160.499922 C31.8087901,161.712285 32.4300011,162.428682 33.3317589,162.428682 C34.0431456,162.428682 34.5090538,162.052949 34.6593468,161.426729 L35.5160167,161.426729 C35.380753,162.46375 34.5090538,163.195176 33.3267491,163.195176 C31.8839366,163.195176 30.9220616,162.178193 30.9220616,160.499922 C30.9220616,158.856719 31.8789269,157.804668 33.3167296,157.804668 C34.6192687,157.804668 35.3957823,158.666348 35.5059972,159.603174 Z M37.0955243,163.105 L37.0955243,157.894844 L37.9672235,157.894844 L37.9672235,163.105 L37.0955243,163.105 Z M37.5313739,157.018135 C37.2357977,157.018135 36.9903192,156.772656 36.9903192,156.47708 C36.9903192,156.176494 37.2357977,155.936025 37.5313739,155.936025 C37.8319599,155.936025 38.0774384,156.176494 38.0774384,156.47708 C38.0774384,156.772656 37.8319599,157.018135 37.5313739,157.018135 Z M42.0365846,163.195176 C40.5937721,163.195176 39.6218776,162.158154 39.6218776,160.499922 C39.6218776,158.83668 40.5937721,157.804668 42.0365846,157.804668 C43.4743874,157.804668 44.4462819,158.83668 44.4462819,160.499922 C44.4462819,162.158154 43.4743874,163.195176 42.0365846,163.195176 Z M42.0365846,162.428682 C42.9583815,162.428682 43.5595534,161.727314 43.5595534,160.499922 C43.5595534,159.272529 42.9583815,158.571162 42.0365846,158.571162 C41.1147878,158.571162 40.5086061,159.272529 40.5086061,160.499922 C40.5086061,161.727314 41.1147878,162.428682 42.0365846,162.428682 Z M42.4323561,157.143379 L41.6708718,157.143379 L42.7229225,155.640449 L43.6647585,155.640449 L42.4323561,157.143379 Z M46.0558481,163.105 L46.0558481,157.894844 L46.8774497,157.894844 L46.8774497,158.726465 L46.8974887,158.726465 C47.1880551,158.165371 47.7441391,157.804668 48.5507114,157.804668 C49.692938,157.804668 50.354227,158.541104 50.354227,159.723408 L50.354227,163.105 L49.4825278,163.105 L49.4825278,159.878711 C49.4825278,159.03707 49.0867563,158.576172 48.2851938,158.576172 C47.4635923,158.576172 46.9275473,159.157305 46.9275473,160.039023 L46.9275473,163.105 L46.0558481,163.105 Z M56.894834,163.105 L56.894834,156.832773 L56.874795,156.832773 L54.9610645,158.210459 L54.9610645,157.258604 L56.8848145,155.875908 L57.7665332,155.875908 L57.7665332,163.105 L56.894834,163.105 Z M62.1765584,163.105 L62.1765584,156.832773 L62.1565194,156.832773 L60.2427889,158.210459 L60.2427889,157.258604 L62.1665389,155.875908 L63.0482576,155.875908 L63.0482576,163.105 L62.1765584,163.105 Z M67.4582828,163.105 L67.4582828,156.832773 L67.4382438,156.832773 L65.5245133,158.210459 L65.5245133,157.258604 L67.4482633,155.875908 L68.329982,155.875908 L68.329982,163.105 L67.4582828,163.105 Z M73.3812572,163.225234 C71.9985619,163.225234 70.9765697,162.363555 70.9014232,161.131152 L71.7881518,161.131152 C71.868308,161.902656 72.5245873,162.433691 73.3912768,162.433691 C74.3731908,162.433691 75.0545189,161.752363 75.0545189,160.780469 C75.0545189,159.808574 74.368181,159.112217 73.406306,159.112217 C72.7299877,159.112217 72.1538646,159.417812 71.8582885,159.923799 L71.0116381,159.923799 L71.4074096,155.875908 L75.545476,155.875908 L75.545476,156.677471 L72.1488549,156.677471 L71.9284252,159.032061 L71.9484643,159.032061 C72.274099,158.596211 72.8752709,158.335703 73.5666185,158.335703 C74.9543236,158.335703 75.9562768,159.352686 75.9562768,160.75542 C75.9562768,162.208252 74.8891967,163.225234 73.3812572,163.225234 Z M79.103841,159.768496 L79.103841,159.007012 L79.9705304,159.007012 C80.8021515,159.007012 81.3832844,158.470967 81.3832844,157.739541 C81.3832844,157.023145 80.8973371,156.537197 79.98055,156.537197 C79.1489289,156.537197 78.5978547,157.013125 78.5176984,157.7696 L77.651009,157.7696 C77.7512043,156.542207 78.6629816,155.755674 80.0206281,155.755674 C81.3131476,155.755674 82.2900519,156.532187 82.2900519,157.619307 C82.2900519,158.526074 81.7089191,159.177344 80.8071613,159.337656 L80.8071613,159.357695 C81.8992902,159.422822 82.6006574,160.099141 82.6006574,161.116123 C82.6006574,162.358545 81.4684504,163.225234 80.0506867,163.225234 C78.5377375,163.225234 77.5708527,162.388604 77.5057258,161.19127 L78.3724152,161.19127 C78.4525715,161.932715 79.0687726,162.443711 80.0406672,162.443711 C80.9975324,162.443711 81.6838703,161.902656 81.6838703,161.146182 C81.6838703,160.294521 81.0426203,159.768496 80.0106086,159.768496 L79.103841,159.768496 Z M89.2264304,163.195176 C87.8988425,163.195176 86.9970847,162.133105 86.9970847,160.499922 C86.9970847,158.866738 87.8938328,157.804668 89.2063914,157.804668 C89.9528464,157.804668 90.5540183,158.170381 90.8646238,158.741494 L90.8846628,158.741494 L90.8846628,155.875908 L91.7563621,155.875908 L91.7563621,163.105 L90.924741,163.105 L90.924741,162.223281 L90.9097117,162.223281 C90.5740574,162.824453 89.9778953,163.195176 89.2264304,163.195176 Z M89.3917527,158.571162 C88.4699558,158.571162 87.888823,159.322627 87.888823,160.499922 C87.888823,161.682227 88.4699558,162.428682 89.3917527,162.428682 C90.2885007,162.428682 90.8896726,161.667197 90.8896726,160.499922 C90.8896726,159.337656 90.2885007,158.571162 89.3917527,158.571162 Z M95.7555865,158.561143 C94.9389947,158.561143 94.3678814,159.187363 94.312774,160.054053 L97.1432915,160.054053 C97.1232525,159.182354 96.577188,158.561143 95.7555865,158.561143 Z M97.1232525,161.61209 L97.9799224,161.61209 C97.8296294,162.523867 96.9479107,163.195176 95.8106939,163.195176 C94.3177837,163.195176 93.4110161,162.158154 93.4110161,160.519961 C93.4110161,158.901807 94.332813,157.804668 95.7706158,157.804668 C97.1783599,157.804668 98.0450494,158.82666 98.0450494,160.404736 L98.0450494,160.735381 L94.3077642,160.735381 L94.3077642,160.785479 C94.3077642,161.782422 94.8939068,162.438701 95.8307329,162.438701 C96.492022,162.438701 96.9779693,162.103047 97.1232525,161.61209 Z M99.6997034,163.105 L99.6997034,155.875908 L100.571403,155.875908 L100.571403,163.105 L99.6997034,163.105 Z M108.775252,163.105 L108.775252,161.60207 L105.143172,161.60207 L105.143172,160.785479 C105.759373,159.643252 106.606023,158.325684 108.314353,155.875908 L109.646951,155.875908 L109.646951,160.810527 L110.668943,160.810527 L110.668943,161.60207 L109.646951,161.60207 L109.646951,163.105 L108.775252,163.105 Z M106.03491,160.790488 L106.03491,160.810527 L108.775252,160.810527 L108.775252,156.627373 L108.760223,156.627373 C107.392557,158.581182 106.606023,159.788535 106.03491,160.790488 Z M117.069277,163.195176 C115.741689,163.195176 114.839931,162.133105 114.839931,160.499922 C114.839931,158.866738 115.736679,157.804668 117.049238,157.804668 C117.795693,157.804668 118.396865,158.170381 118.70747,158.741494 L118.727509,158.741494 L118.727509,155.875908 L119.599208,155.875908 L119.599208,163.105 L118.767587,163.105 L118.767587,162.223281 L118.752558,162.223281 C118.416904,162.824453 117.820742,163.195176 117.069277,163.195176 Z M117.234599,158.571162 C116.312802,158.571162 115.731669,159.322627 115.731669,160.499922 C115.731669,161.682227 116.312802,162.428682 117.234599,162.428682 C118.131347,162.428682 118.732519,161.667197 118.732519,160.499922 C118.732519,159.337656 118.131347,158.571162 117.234599,158.571162 Z M123.598433,158.561143 C122.781841,158.561143 122.210728,159.187363 122.15562,160.054053 L124.986138,160.054053 C124.966099,159.182354 124.420034,158.561143 123.598433,158.561143 Z M124.966099,161.61209 L125.822769,161.61209 C125.672476,162.523867 124.790757,163.195176 123.65354,163.195176 C122.16063,163.195176 121.253863,162.158154 121.253863,160.519961 C121.253863,158.901807 122.175659,157.804668 123.613462,157.804668 C125.021206,157.804668 125.887896,158.82666 125.887896,160.404736 L125.887896,160.735381 L122.150611,160.735381 L122.150611,160.785479 C122.150611,161.782422 122.736753,162.438701 123.673579,162.438701 C124.334868,162.438701 124.820816,162.103047 124.966099,161.61209 Z M132.05277,162.45373 C132.874372,162.45373 133.505602,161.877607 133.505602,161.126143 L133.505602,160.700312 L132.112888,160.785479 C131.41152,160.830566 131.010739,161.141172 131.010739,161.632129 C131.010739,162.128096 131.42655,162.45373 132.05277,162.45373 Z M131.857389,163.195176 C130.820368,163.195176 130.124011,162.568955 130.124011,161.632129 C130.124011,160.740391 130.810348,160.179297 132.012692,160.10916 L133.505602,160.023994 L133.505602,159.588145 C133.505602,158.951904 133.084782,158.571162 132.363376,158.571162 C131.692067,158.571162 131.271247,158.886777 131.161032,159.397773 L130.319391,159.397773 C130.379509,158.496016 131.151013,157.804668 132.383415,157.804668 C133.605798,157.804668 134.377302,158.465957 134.377302,159.502979 L134.377302,163.105 L133.55069,163.105 L133.55069,162.208252 L133.530651,162.208252 C133.220046,162.804414 132.558757,163.195176 131.857389,163.195176 Z M138.336448,162.378584 C139.243215,162.378584 139.849397,161.627119 139.849397,160.479883 C139.849397,159.332646 139.243215,158.571162 138.336448,158.571162 C137.4397,158.571162 136.853557,159.312607 136.853557,160.479883 C136.853557,161.647158 137.4397,162.378584 138.336448,162.378584 Z M138.366506,165.068828 C137.21927,165.068828 136.312503,164.422568 136.167219,163.53584 L137.063967,163.53584 C137.234299,164.011768 137.750305,164.327383 138.401575,164.327383 C139.303333,164.327383 139.849397,163.806367 139.849397,163.029854 L139.849397,162.208252 L139.829358,162.208252 C139.508733,162.774355 138.892532,163.145078 138.161106,163.145078 C136.833518,163.145078 135.961819,162.098037 135.961819,160.479883 C135.961819,158.846699 136.833518,157.804668 138.181145,157.804668 C138.917581,157.804668 139.528772,158.165371 139.874446,158.771553 L139.889475,158.771553 L139.889475,157.894844 L140.721096,157.894844 L140.721096,162.999795 C140.721096,164.242217 139.804309,165.068828 138.366506,165.068828 Z M144.74537,163.195176 C143.302557,163.195176 142.330662,162.158154 142.330662,160.499922 C142.330662,158.83668 143.302557,157.804668 144.74537,157.804668 C146.183172,157.804668 147.155067,158.83668 147.155067,160.499922 C147.155067,162.158154 146.183172,163.195176 144.74537,163.195176 Z M144.74537,162.428682 C145.667166,162.428682 146.268338,161.727314 146.268338,160.499922 C146.268338,159.272529 145.667166,158.571162 144.74537,158.571162 C143.823573,158.571162 143.217391,159.272529 143.217391,160.499922 C143.217391,161.727314 143.823573,162.428682 144.74537,162.428682 Z M148.674457,159.332646 C148.674457,158.440908 149.47101,157.804668 150.618246,157.804668 C151.695346,157.804668 152.486889,158.445918 152.526967,159.327637 L151.695346,159.327637 C151.635229,158.82666 151.229438,158.516055 150.588188,158.516055 C149.951947,158.516055 149.531127,158.83167 149.531127,159.287559 C149.531127,159.648262 149.806664,159.88873 150.397817,160.039023 L151.204389,160.234404 C152.25644,160.499922 152.637182,160.880664 152.637182,161.647158 C152.637182,162.553926 151.780512,163.195176 150.563139,163.195176 C149.420912,163.195176 148.62436,162.573965 148.534184,161.652168 L149.405883,161.652168 C149.501069,162.193223 149.911869,162.483789 150.618246,162.483789 C151.324623,162.483789 151.760473,162.183203 151.760473,161.712285 C151.760473,161.341562 151.545053,161.141172 150.95891,160.985869 L150.042123,160.75041 C149.125336,160.514951 148.674457,160.044033 148.674457,159.332646 Z M154.552344,156.637393 L155.424043,156.637393 L155.424043,157.894844 L156.436016,157.894844 L156.436016,158.61124 L155.424043,158.61124 L155.424043,161.707275 C155.424043,162.183203 155.624434,162.398623 156.070303,162.398623 C156.170498,162.398623 156.370889,162.383594 156.431006,162.373574 L156.431006,163.105 C156.325801,163.130049 156.085332,163.145078 155.879932,163.145078 C154.923066,163.145078 154.552344,162.754316 154.552344,161.752363 L154.552344,158.61124 L153.77583,158.61124 L153.77583,157.894844 L154.552344,157.894844 L154.552344,156.637393 Z M160.104595,163.195176 C158.661783,163.195176 157.689888,162.158154 157.689888,160.499922 C157.689888,158.83668 158.661783,157.804668 160.104595,157.804668 C161.542398,157.804668 162.514293,158.83668 162.514293,160.499922 C162.514293,162.158154 161.542398,163.195176 160.104595,163.195176 Z M160.104595,162.428682 C161.026392,162.428682 161.627564,161.727314 161.627564,160.499922 C161.627564,159.272529 161.026392,158.571162 160.104595,158.571162 C159.182799,158.571162 158.576617,159.272529 158.576617,160.499922 C158.576617,161.727314 159.182799,162.428682 160.104595,162.428682 Z M168.934665,163.195176 C167.607077,163.195176 166.70532,162.133105 166.70532,160.499922 C166.70532,158.866738 167.602068,157.804668 168.914626,157.804668 C169.661081,157.804668 170.262253,158.170381 170.572859,158.741494 L170.592898,158.741494 L170.592898,155.875908 L171.464597,155.875908 L171.464597,163.105 L170.632976,163.105 L170.632976,162.223281 L170.617947,162.223281 C170.282292,162.824453 169.68613,163.195176 168.934665,163.195176 Z M169.099988,158.571162 C168.178191,158.571162 167.597058,159.322627 167.597058,160.499922 C167.597058,161.682227 168.178191,162.428682 169.099988,162.428682 C169.996736,162.428682 170.597908,161.667197 170.597908,160.499922 C170.597908,159.337656 169.996736,158.571162 169.099988,158.571162 Z M175.463821,158.561143 C174.64723,158.561143 174.076116,159.187363 174.021009,160.054053 L176.851526,160.054053 C176.831487,159.182354 176.285423,158.561143 175.463821,158.561143 Z M176.831487,161.61209 L177.688157,161.61209 C177.537864,162.523867 176.656146,163.195176 175.518929,163.195176 C174.026019,163.195176 173.119251,162.158154 173.119251,160.519961 C173.119251,158.901807 174.041048,157.804668 175.478851,157.804668 C176.886595,157.804668 177.753284,158.82666 177.753284,160.404736 L177.753284,160.735381 L174.015999,160.735381 L174.015999,160.785479 C174.015999,161.782422 174.602142,162.438701 175.538968,162.438701 C176.200257,162.438701 176.686204,162.103047 176.831487,161.61209 Z M184.063442,163.105 L184.063442,156.832773 L184.043403,156.832773 L182.129673,158.210459 L182.129673,157.258604 L184.053423,155.875908 L184.935141,155.875908 L184.935141,163.105 L184.063442,163.105 Z M189.801055,163.225234 C188.568653,163.225234 187.621807,162.483789 187.401377,161.351582 L188.318165,161.351582 C188.508536,162.007861 189.094678,162.438701 189.811075,162.438701 C191.013418,162.438701 191.704766,161.346572 191.729815,159.427832 L191.714786,159.427832 C191.40919,160.144229 190.617647,160.610137 189.69585,160.610137 C188.318165,160.610137 187.296172,159.593154 187.296172,158.220479 C187.296172,156.792695 188.373272,155.750664 189.856163,155.750664 C190.943282,155.750664 191.804961,156.336807 192.245821,157.373828 C192.48629,157.929912 192.601514,158.581182 192.601514,159.367715 C192.601514,161.802461 191.569502,163.225234 189.801055,163.225234 Z M189.851153,159.818594 C190.808018,159.818594 191.519405,159.137266 191.519405,158.215469 C191.519405,157.288662 190.797998,156.562246 189.866182,156.562246 C188.939375,156.562246 188.20795,157.283652 188.20795,158.19042 C188.20795,159.132256 188.904307,159.818594 189.851153,159.818594 Z M194.591823,163.105 L197.863199,156.69751 L197.863199,156.677471 L193.970612,156.677471 L193.970612,155.875908 L198.754938,155.875908 L198.754938,156.712539 L195.538668,163.105 L194.591823,163.105 Z M203.00465,163.225234 C201.476672,163.225234 200.384543,162.358545 200.384543,161.151191 C200.384543,160.249434 201.005754,159.507988 201.93757,159.292568 L201.93757,159.272529 C201.156047,159.032061 200.6701,158.415859 200.6701,157.654375 C200.6701,156.562246 201.662033,155.755674 203.00465,155.755674 C204.357287,155.755674 205.334191,156.557236 205.334191,157.659385 C205.334191,158.41085 204.858264,159.022041 204.071731,159.272529 L204.071731,159.292568 C205.008557,159.512998 205.629768,160.254443 205.629768,161.151191 C205.629768,162.363555 204.537639,163.225234 203.00465,163.225234 Z M203.00465,162.438701 C204.001594,162.438701 204.707971,161.872598 204.707971,161.086064 C204.707971,160.289512 204.001594,159.728418 203.00465,159.728418 C202.012717,159.728418 201.30133,160.294521 201.30133,161.086064 C201.30133,161.872598 202.012717,162.438701 203.00465,162.438701 Z M203.00465,158.936875 C203.846291,158.936875 204.442453,158.440908 204.442453,157.739541 C204.442453,157.028154 203.851301,156.532187 203.00465,156.532187 C202.158,156.532187 201.566848,157.033164 201.566848,157.739541 C201.566848,158.440908 202.158,158.936875 203.00465,158.936875 Z M207.96575,163.155098 C207.645125,163.155098 207.394637,162.904609 207.394637,162.583984 C207.394637,162.263359 207.645125,162.012871 207.96575,162.012871 C208.286375,162.012871 208.536863,162.263359 208.536863,162.583984 C208.536863,162.904609 208.286375,163.155098 207.96575,163.155098 Z" id="VigiladaMineducacin.PersoneraJurdicaotorgadamedianteresolucin11153del4deagostode1978." fill="#808080" fill-rule="nonzero"></path>
            </g>
        </g>
    </g>
</svg>