
<svg width="116px" height="28px" viewBox="0 0 116 28" version="1.1" xmlns="http://www.w3.org/2000/svg" xmlns:xlink="http://www.w3.org/1999/xlink">
    <g id="Page-1" stroke="none" stroke-width="1" fill="none" fill-rule="evenodd">
        <g id="ui-2do-congreso3d" transform="translate(-662.000000, -3245.000000)">
            <g id="Group-6" transform="translate(663.000000, 3245.000000)">
                <g id="ph:note-pencil" transform="translate(52.000000, 0.000000)" fill="#0D6BFF" fill-rule="nonzero">
                    <path d="M27.5443609,6.67784872 L21.3221513,0.455639092 C21.0304263,0.16389909 20.6347533,0 20.2221813,0 C19.8096092,0 19.4139363,0.16389909 19.1222113,0.455639092 L0.455582411,19.122268 C0.163863195,19.4140022 0,19.8096741 0,20.222238 L0,26.4444476 C0,27.3035555 0.696444535,28 1.55555241,28 L7.77776203,28 C8.19032593,28 8.58599778,27.8361368 8.87773203,27.5444176 L27.5443609,8.87778871 C27.8361009,8.58606374 28,8.19039075 28,7.77781871 C28,7.36524668 27.8361009,6.96957369 27.5443609,6.67784872 L27.5443609,6.67784872 Z M6.90846185,25 L3,25 L3,21.0917271 L15.0917271,9 L19,12.9082729 L6.90846185,25 Z M21.7190543,10 L18,6.28083423 L20.2807659,4 L24,7.71916577 L21.7190543,10 Z" id="Shape"></path>
                </g>
                <line x1="46.5" y1="26.5" x2="0.5" y2="26.5" id="Line-6" stroke="#0D6BFF" stroke-width="3" stroke-linecap="round"></line>
                <line x1="113.5" y1="26.5" x2="67.5" y2="26.5" id="Line-6-Copy" stroke="#0D6BFF" stroke-width="3" stroke-linecap="round"></line>
            </g>
        </g>
    </g>
</svg>